<?xml version="1.0" encoding="utf-8"?>
<!-- Generator: Adobe Illustrator 24.2.3, SVG Export Plug-In . SVG Version: 6.00 Build 0)  -->
<svg version="1.1" id="Capa_1" xmlns="http://www.w3.org/2000/svg" xmlns:xlink="http://www.w3.org/1999/xlink" x="0px" y="0px"
	 viewBox="0 0 447.8 50" style="enable-background:new 0 0 447.8 50;" xml:space="preserve">
<style type="text/css">
	.st0{fill:#FFFFFF;}
	.st1{fill:#303030;}
	.st2{opacity:0.6;fill:#FFFFFF;enable-background:new    ;}
</style>
<g>
	<g>
		<g>
			<g>
				<path class="st0" d="M26.1,27.3v7h-2.5v-6.3c0-1.4-1-2.5-2.5-2.5c-0.7,0-1.3,0.1-2,0.3v8.5h-2.5V24.1c1.2-0.4,2.7-1,4.7-1
					C23.5,23,26.1,24.6,26.1,27.3"/>
				<rect x="28.5" y="23.2" class="st0" width="2.5" height="11.2"/>
				<path class="st0" d="M42.6,32.6c-0.8,0.9-2,1.8-4.1,1.8c-3.7,0-5.5-2.8-5.5-5.8c0-2.9,1.8-5.7,5.5-5.7c1.6,0,3.1,0.5,4,1.7
					l-1.8,2c-0.7-0.7-1.3-1-2.3-1c-2,0-2.9,1.7-2.9,3.4c0,1.7,0.9,3.3,2.8,3.3c1.1,0,1.8-0.7,2.3-1L42.6,32.6z"/>
				<path class="st0" d="M48.3,32.3c0.5,0,1-0.1,1.7-0.2v-2.9c-0.5-0.1-1-0.1-1.7-0.1c-1.1,0-2.7,0.3-2.7,1.7
					C45.6,31.8,46.5,32.3,48.3,32.3 M52.3,27.3v6.2c-1.1,0.4-2.3,1-4,1c-3.4,0-5.1-1.4-5.1-3.8c0-2.9,3.2-3.5,5.1-3.5
					c0.5,0,1,0.1,1.7,0.1c-0.1-1.2-0.7-2-2.2-2c-0.8,0-1.8,0.1-2.5,0.4l-0.9-1.9c1.1-0.5,2.6-0.7,3.5-0.7
					C50.1,23,52.3,24.7,52.3,27.3"/>
				<path class="st0" d="M11.8,27.6v4c-0.6,0.2-1.3,0.3-2,0.3c-0.1,0-0.3,0-0.4-0.1c-1.1-0.2-2-1-2-2.5v-6.3H4.8v7
					c0,2.1,1.6,3.4,3.2,4c0.5,0.1,1,0.2,1.7,0.2c2,0,3.4-0.5,4.7-1v-10L11.8,27.6z"/>
			</g>
			<polygon class="st0" points="9.4,16.5 15.9,16.5 9.4,27.6 			"/>
			<polygon class="st0" points="9.4,16.5 9.4,27.6 15.9,16.5 			"/>
		</g>
	</g>
	<g>
		<path class="st0" d="M94.8,16.5c-4.4,0-7.5,2.4-7.5,5.7c0,2.5,2.3,3.9,3.9,4.7c1.8,0.8,2.3,1.3,2.3,2.2c0,1.1-1.3,1.7-2.7,1.7
			c-1.8,0-2.8-0.2-4.2-0.9L86,29.4l-0.6,3.8c1,0.4,3,0.9,5,0.9c4.7,0,7.8-2.3,7.8-5.9c0-2-1.1-3.4-3.7-4.7c-1.6-0.7-2.5-1.3-2.5-2.2
			c0-0.7,0.8-1.4,2.5-1.4c1.4,0,2.5,0.3,3.4,0.7l0.4,0.2l0.6-3.7C98,16.8,96.6,16.5,94.8,16.5L94.8,16.5z M81,16.7L78.2,34h4.4
			l2.8-17.3L81,16.7L81,16.7z M74.4,16.8L70,28.6l-0.4-2.4c-1-2.9-3.4-6-6.2-7.2l4,15.1h4.8l7-17.3L74.4,16.8L74.4,16.8z
			 M106.8,16.8c-1,0-1.9,0.3-2.4,1.4l-6.6,15.9h4.7c0,0,0.7-2.2,0.9-2.6c0.5,0,5.1,0,5.8,0c0.1,0.6,0.5,2.6,0.5,2.6h4.1l-3.6-17.3
			L106.8,16.8L106.8,16.8z M107.2,21.4l0.3,1.4c0,0,0.8,4.1,1,5h-3.7c0.4-1,1.8-4.9,1.8-4.9C106.5,23.1,107,22.1,107.2,21.4
			L107.2,21.4z"/>
		<path class="st0" d="M66,16.8h-7.2l-0.1,0.3c5.6,1.4,9.3,5,10.9,9.1l-1.6-8C67.8,17.1,66.9,16.8,66,16.8"/>
	</g>
	<g>
		<g>
			<path class="st0" d="M157.7,37.6C157.8,37.6,157.8,37.6,157.7,37.6c0.1,0,0.1,0,0.1,0.1l0.1,0.1v0.1c0,0.1,0,0.1,0,0.1
				s0,0.1-0.1,0.1l-0.1,0.1h-0.1c-0.1,0-0.1,0-0.1,0s-0.1,0-0.1-0.1l-0.1-0.1v-0.1c0-0.1,0-0.1,0-0.1s0-0.1,0.1-0.1l0.1-0.1
				C157.6,37.6,157.6,37.6,157.7,37.6z M157.7,38.1L157.7,38.1c0.1,0,0.1,0,0.1-0.1c0,0,0-0.1,0.1-0.1v-0.1v-0.1c0,0,0-0.1-0.1-0.1
				c0,0-0.1,0-0.1-0.1h-0.1h-0.1c0,0-0.1,0-0.1,0.1c0,0,0,0.1-0.1,0.1v0.1v0.1c0,0,0,0.1,0.1,0.1C157.6,38,157.6,38,157.7,38.1
				C157.6,38.1,157.6,38.1,157.7,38.1z M157.7,37.8L157.7,37.8C157.8,37.8,157.8,37.8,157.7,37.8c0.1,0.1,0.1,0.1,0.1,0.1s0,0-0.1,0
				l0.1,0.1h-0.1l-0.1-0.1l0,0V38h-0.1v-0.2C157.5,37.8,157.7,37.8,157.7,37.8z M157.6,37.9L157.6,37.9L157.6,37.9
				C157.7,37.9,157.7,37.9,157.6,37.9L157.6,37.9L157.6,37.9C157.7,37.9,157.7,37.9,157.6,37.9L157.6,37.9z"/>
		</g>
		<g>
			<path class="st0" d="M137.1,22.2c0-3.3,1.6-6.3,4-8.2c-1.8-1.3-4-2.3-6.5-2.3c-5.8,0-10.5,4.7-10.5,10.5s4.7,10.5,10.5,10.5
				c2.5,0,4.8-0.8,6.5-2.3C138.6,28.6,137.1,25.6,137.1,22.2z"/>
			<path class="st0" d="M157.3,27.8v-0.3h-0.1v-0.1h0.3v0.1h-0.1v0.3H157.3z M158,27.8v-0.3V27.8l-0.1-0.1l-0.1-0.2v0.3h-0.1v-0.4
				h0.1l0.1,0.2l0.1-0.2h0.1v0.4C158.1,27.8,158,27.8,158,27.8z"/>
			<path class="st0" d="M147.6,11.7c-2.5,0-4.8,0.8-6.5,2.3c2.5,2,4,4.9,4,8.2s-1.6,6.3-4,8.2c1.8,1.3,4,2.3,6.5,2.3
				c5.8,0,10.5-4.7,10.5-10.5S153.4,11.7,147.6,11.7z"/>
			<g>
				<ellipse class="st0" cx="141.1" cy="22.2" rx="4" ry="8.2"/>
				<path class="st1" d="M141.1,30.7c-2.5,0-4.3-3.7-4.3-8.6s2-8.6,4.3-8.6s4.3,3.7,4.3,8.6S143.6,30.7,141.1,30.7z M141.1,14.4
					c-2,0-3.6,3.6-3.6,7.9s1.7,7.9,3.6,7.9c2,0,3.6-3.6,3.6-7.9S143,14.4,141.1,14.4z"/>
			</g>
		</g>
		<g>
			<path class="st0" d="M129.9,35.5c-0.1-0.1-0.2-0.1-0.4-0.2c-0.1-0.1-0.3-0.1-0.4-0.1c-0.1,0-0.1,0-0.2,0c-0.1,0-0.1,0.1-0.2,0.1
				s-0.1,0.1-0.2,0.1c-0.1,0-0.1,0.1-0.2,0.2c-0.1-0.1-0.2-0.3-0.4-0.4c-0.1-0.1-0.3-0.1-0.5-0.1c-0.1,0-0.1,0-0.2,0
				c-0.1,0-0.1,0-0.2,0.1c-0.1,0-0.1,0.1-0.2,0.1c-0.1,0.1-0.1,0.1-0.1,0.2v-0.2H126v2.8h0.6v-1.6c0-0.1,0-0.2,0.1-0.3
				c0-0.1,0.1-0.1,0.1-0.2c0.1-0.1,0.1-0.1,0.2-0.1c0.1,0,0.1-0.1,0.3-0.1c0.2,0,0.4,0.1,0.4,0.1c0.1,0.1,0.1,0.3,0.1,0.5V38h0.6
				v-1.6c0-0.1,0-0.2,0.1-0.3c0-0.1,0.1-0.1,0.1-0.2c0.1-0.1,0.1-0.1,0.2-0.1c0.1,0,0.1-0.1,0.3-0.1s0.4,0.1,0.4,0.1
				c0.1,0.1,0.1,0.3,0.1,0.5v1.6h0.6v-1.8c0-0.1,0-0.3-0.1-0.4C130,35.8,130,35.6,129.9,35.5z"/>
			<path class="st0" d="M132.9,35.6c-0.1-0.1-0.2-0.2-0.4-0.3c-0.1-0.1-0.3-0.1-0.5-0.1c-0.2,0-0.4,0-0.5,0.1
				c-0.1,0.1-0.3,0.1-0.4,0.3c-0.1,0.2-0.2,0.3-0.3,0.4c-0.1,0.1-0.1,0.4-0.1,0.6s0,0.4,0.1,0.6c0.1,0.1,0.1,0.3,0.3,0.4
				c0.1,0.1,0.3,0.2,0.4,0.3c0.1,0.1,0.4,0.1,0.5,0.1c0.2,0,0.4,0,0.5-0.1c0.1-0.1,0.2-0.1,0.4-0.3V38h0.6v-2.7h-0.6V35.6z
				 M132.9,36.9c-0.1,0.1-0.1,0.2-0.1,0.3c-0.1,0.1-0.1,0.1-0.2,0.1c-0.1,0.1-0.2,0.1-0.3,0.1c-0.1,0-0.2,0-0.4-0.1
				c-0.1-0.1-0.2-0.1-0.2-0.2c-0.1-0.1-0.1-0.1-0.1-0.3c-0.1-0.1-0.1-0.2-0.1-0.4c0-0.1,0-0.2,0.1-0.4c0.1-0.1,0.1-0.2,0.1-0.3
				c0.1-0.1,0.1-0.1,0.2-0.2c0.1-0.1,0.2-0.1,0.4-0.1c0.2,0,0.2,0,0.3,0.1c0.1,0.1,0.1,0.1,0.2,0.1c0.1,0.1,0.1,0.1,0.1,0.3
				c0.1,0.1,0.1,0.2,0.1,0.4C133,36.8,133,36.9,132.9,36.9z"/>
			<path class="st0" d="M136.4,36.7c-0.1-0.1-0.4-0.2-0.7-0.2l-0.3-0.1c-0.1,0-0.1,0-0.1,0c-0.1,0-0.1,0-0.1-0.1
				c-0.1,0-0.1-0.1-0.1-0.1v-0.1c0-0.1,0.1-0.1,0.1-0.2c0.1-0.1,0.2-0.1,0.4-0.1c0.1,0,0.1,0,0.2,0s0.1,0,0.2,0.1
				c0.1,0,0.1,0.1,0.2,0.1c0.1,0,0.1,0.1,0.1,0.1l0.2-0.4c-0.1-0.1-0.3-0.1-0.5-0.2c-0.2-0.1-0.4-0.1-0.6-0.1c-0.1,0-0.3,0-0.4,0.1
				c-0.1,0.1-0.2,0.1-0.4,0.1c-0.1,0.1-0.1,0.1-0.2,0.3c-0.1,0.1-0.1,0.2-0.1,0.4s0.1,0.4,0.2,0.5c0.1,0.1,0.4,0.2,0.7,0.3h0.3
				c0.1,0,0.3,0.1,0.4,0.1c0.1,0.1,0.1,0.1,0.1,0.2c0,0.1-0.1,0.1-0.1,0.2c-0.1,0.1-0.2,0.1-0.4,0.1c-0.1,0-0.2,0-0.3,0
				c-0.1,0-0.1,0-0.2-0.1c-0.1,0-0.1-0.1-0.2-0.1c-0.1,0-0.1-0.1-0.1-0.1l-0.3,0.4c0.1,0.1,0.2,0.1,0.3,0.1c0.1,0.1,0.2,0.1,0.3,0.1
				c0.1,0,0.2,0.1,0.3,0.1c0.1,0,0.1,0,0.2,0c0.2,0,0.4,0,0.5-0.1c0.1-0.1,0.3-0.1,0.4-0.1c0.1-0.1,0.1-0.1,0.2-0.3
				c0.1-0.1,0.1-0.2,0.1-0.4C136.6,36.9,136.5,36.8,136.4,36.7z"/>
			<path class="st0" d="M142.1,35.6c-0.1-0.1-0.2-0.2-0.4-0.3c-0.2-0.1-0.3-0.1-0.5-0.1c-0.2,0-0.4,0-0.5,0.1
				c-0.1,0.1-0.3,0.1-0.4,0.3c-0.1,0.1-0.2,0.3-0.3,0.4s-0.1,0.4-0.1,0.6s0,0.4,0.1,0.6c0.1,0.1,0.1,0.3,0.3,0.4
				c0.1,0.1,0.3,0.2,0.4,0.3c0.1,0.1,0.4,0.1,0.6,0.1s0.4,0,0.6-0.1c0.1-0.1,0.4-0.1,0.5-0.3l-0.3-0.4c-0.1,0.1-0.2,0.1-0.4,0.2
				c-0.1,0.1-0.3,0.1-0.4,0.1s-0.2,0-0.3-0.1c-0.1,0-0.1-0.1-0.2-0.1s-0.1-0.1-0.1-0.2c-0.1-0.1-0.1-0.2-0.1-0.3h2.1v-0.1
				c0-0.1,0-0.1,0-0.1c0-0.2,0-0.4-0.1-0.6C142.3,35.9,142.2,35.8,142.1,35.6z M140.4,36.4c0-0.1,0.1-0.2,0.1-0.3
				c0.1-0.1,0.1-0.1,0.1-0.2c0.1-0.1,0.1-0.1,0.2-0.1c0.1,0,0.1-0.1,0.3-0.1s0.4,0.1,0.4,0.1c0.1,0.1,0.2,0.3,0.2,0.5L140.4,36.4
				L140.4,36.4z"/>
			<path class="st0" d="M150.2,35.6c-0.1-0.1-0.2-0.2-0.4-0.3c-0.2-0.1-0.3-0.1-0.5-0.1c-0.2,0-0.4,0-0.5,0.1
				c-0.1,0.1-0.3,0.1-0.4,0.3c-0.1,0.1-0.2,0.3-0.3,0.4s-0.1,0.4-0.1,0.6s0,0.4,0.1,0.6c0.1,0.1,0.1,0.3,0.3,0.4
				c0.1,0.1,0.3,0.2,0.4,0.3c0.1,0.1,0.4,0.1,0.5,0.1c0.2,0,0.4,0,0.5-0.1c0.1-0.1,0.2-0.1,0.4-0.3V38h0.6v-2.7h-0.6V35.6z
				 M150.2,36.9c-0.1,0.1-0.1,0.2-0.1,0.3c-0.1,0.1-0.1,0.1-0.2,0.1c-0.1,0.1-0.2,0.1-0.3,0.1c-0.1,0-0.2,0-0.4-0.1
				c-0.1-0.1-0.2-0.1-0.2-0.2c-0.1-0.1-0.1-0.1-0.1-0.3c-0.1-0.1-0.1-0.2-0.1-0.4c0-0.1,0-0.2,0.1-0.4c0.1-0.1,0.1-0.2,0.1-0.3
				c0.1-0.1,0.1-0.1,0.2-0.2c0.1-0.1,0.2-0.1,0.4-0.1c0.1,0,0.2,0,0.3,0.1c0.1,0.1,0.1,0.1,0.2,0.1c0.1,0.1,0.1,0.1,0.1,0.3
				c0.1,0.1,0.1,0.2,0.1,0.4C150.2,36.8,150.2,36.9,150.2,36.9z"/>
			<path class="st0" d="M139,37.6c-0.1,0-0.2,0.1-0.3,0.1c-0.1,0-0.1,0-0.1,0c-0.1,0-0.1-0.1-0.1-0.1c-0.1-0.1-0.1-0.1-0.1-0.1
				c0-0.1,0-0.1,0-0.2V36h1v-0.5h-1v-0.8h-0.6v0.8h-0.5V36h0.5v1.2c0,0.4,0.1,0.6,0.2,0.8c0.1,0.1,0.4,0.2,0.7,0.2
				c0.1,0,0.3,0,0.4-0.1c0.1,0,0.1-0.1,0.2-0.1l-0.2-0.5C139.2,37.5,139.1,37.5,139,37.6z"/>
			<path class="st0" d="M144.6,35.2c-0.1,0-0.3,0-0.4,0.1c-0.1,0.1-0.2,0.2-0.4,0.4v-0.4h-0.5v2.8h0.5v-1.6c0-0.1,0-0.2,0.1-0.3
				c0-0.1,0.1-0.1,0.1-0.2c0.1-0.1,0.1-0.1,0.2-0.1s0.1-0.1,0.2-0.1c0.1,0,0.1,0,0.2,0c0.1,0,0.1,0,0.1,0l0.1-0.6
				c-0.1,0-0.1,0-0.1,0C144.7,35.2,144.6,35.2,144.6,35.2z"/>
			<path class="st0" d="M153,35.2c-0.1,0-0.3,0-0.4,0.1c-0.1,0.1-0.2,0.2-0.4,0.4v-0.4h-0.5v2.8h0.5v-1.6c0-0.1,0-0.2,0.1-0.3
				c0-0.1,0.1-0.1,0.1-0.2c0.1-0.1,0.1-0.1,0.2-0.1c0.1,0,0.1-0.1,0.2-0.1c0.1,0,0.1,0,0.2,0c0.1,0,0.1,0,0.1,0l0.1-0.6
				c-0.1,0-0.1,0-0.1,0C153.2,35.2,153.1,35.2,153,35.2z"/>
			<path class="st0" d="M155.9,34.2v1.4c-0.1-0.1-0.2-0.2-0.4-0.3c-0.1-0.1-0.3-0.1-0.5-0.1s-0.4,0-0.5,0.1
				c-0.1,0.1-0.3,0.1-0.4,0.3c-0.1,0.2-0.2,0.3-0.3,0.4c-0.1,0.1-0.1,0.4-0.1,0.6s0,0.4,0.1,0.6c0.1,0.1,0.1,0.3,0.3,0.4
				c0.1,0.1,0.3,0.2,0.4,0.3c0.1,0.1,0.4,0.1,0.5,0.1c0.2,0,0.4,0,0.5-0.1c0.1-0.1,0.2-0.1,0.4-0.3V38h0.6V34h-0.6V34.2z
				 M155.9,36.9c-0.1,0.1-0.1,0.2-0.1,0.3c-0.1,0.1-0.1,0.1-0.2,0.1c-0.1,0.1-0.2,0.1-0.3,0.1s-0.2,0-0.4-0.1
				c-0.1-0.1-0.2-0.1-0.2-0.2c-0.1-0.1-0.1-0.1-0.1-0.3c-0.1-0.1-0.1-0.2-0.1-0.4c0-0.1,0-0.2,0.1-0.4c0.1-0.1,0.1-0.2,0.1-0.3
				c0.1-0.1,0.1-0.1,0.2-0.2c0.1-0.1,0.2-0.1,0.4-0.1s0.2,0,0.3,0.1c0.1,0.1,0.1,0.1,0.2,0.1c0.1,0.1,0.1,0.1,0.1,0.3
				c0.1,0.1,0.1,0.2,0.1,0.4C155.9,36.8,155.9,36.9,155.9,36.9z"/>
			<path class="st0" d="M146,36c0.1-0.1,0.1-0.1,0.3-0.1c0.1-0.1,0.2-0.1,0.4-0.1l0,0c0.1,0,0.2,0,0.4,0.1c0.1,0.1,0.2,0.1,0.3,0.1
				l0.3-0.4c-0.1-0.1-0.2-0.1-0.4-0.2c-0.1-0.1-0.4-0.1-0.6-0.1c-0.2,0-0.4,0-0.6,0.1c-0.1,0.1-0.3,0.1-0.4,0.3
				c-0.1,0.2-0.2,0.3-0.3,0.4c-0.1,0.1-0.1,0.4-0.1,0.6s0,0.4,0.1,0.6c0.1,0.1,0.1,0.3,0.3,0.4c0.1,0.1,0.3,0.2,0.4,0.3
				c0.1,0.1,0.4,0.1,0.6,0.1c0.2,0,0.4,0,0.6-0.1c0.1-0.1,0.2-0.1,0.4-0.2l-0.3-0.4c-0.1,0.1-0.1,0.1-0.3,0.1
				c-0.1,0.1-0.2,0.1-0.4,0.1l0,0c-0.1,0-0.2,0-0.4-0.1c-0.1-0.1-0.2-0.1-0.3-0.1c-0.1-0.1-0.1-0.1-0.1-0.3
				c-0.1-0.1-0.1-0.2-0.1-0.4s0-0.2,0.1-0.4C145.8,36.2,145.9,36.1,146,36z"/>
		</g>
	</g>
	<g>
		<path class="st0" d="M231.2,27.2c4.7,0,8.8-3.7,8.8-8.4c0-5.1-4.2-8.5-8.8-8.5h-4c-4.7,0-8.5,3.4-8.5,8.5c0,4.7,3.8,8.5,8.5,8.4
			H231.2z"/>
		<path class="st1" d="M228.9,23.4v-9.2c1.9,0.7,3.1,2.5,3.1,4.7C232.1,20.9,230.7,22.7,228.9,23.4 M222.3,18.8
			c0-2.1,1.3-3.8,3.1-4.7v9.2C223.6,22.7,222.3,20.9,222.3,18.8 M227.1,11.1c-4.3,0-7.8,3.4-7.8,7.8s3.4,7.8,7.8,7.8
			s7.8-3.4,7.8-7.8S231.5,11.1,227.1,11.1"/>
		<path class="st0" d="M210,33.1c0,0.7,0.4,0.7,0.9,0.7c2,0,2.5-1.4,2.5-2.8c0-1.7-1-2.9-2.8-2.9c-0.4,0-0.5,0-0.7,0v5H210z
			 M209,28.9c0-0.7-0.4-0.7-0.8-0.7v-0.2c0.4,0,0.7,0,1,0s0.9,0,1.6,0c2.3,0,3.6,1.6,3.6,3.1c0,0.9-0.5,3.1-3.7,3.1
			c-0.4,0-0.8,0-1.3,0c-0.4,0-0.7,0-1.2,0v-0.2c0.5-0.1,0.7-0.1,0.8-0.7v-4.3H209z"/>
		<path class="st0" d="M215.8,28.7c-0.2,0-0.4-0.2-0.4-0.4c0-0.2,0.2-0.4,0.4-0.4c0.2,0,0.4,0.1,0.4,0.4
			C216.2,28.4,216,28.7,215.8,28.7 M214.7,33.8h0.1c0.2,0,0.4,0,0.4-0.3v-2.5c0-0.4-0.1-0.4-0.4-0.6v-0.1c0.4-0.1,0.9-0.3,0.9-0.3
			c0.1,0,0.1-0.1,0.1-0.1c0.1,0,0.1,0.1,0.1,0.1v3.4c0,0.3,0.2,0.3,0.4,0.3h0.1v0.2c-0.3,0-0.6,0-0.9,0c-0.3,0-0.6,0-1,0L214.7,33.8
			L214.7,33.8z"/>
		<path class="st0" d="M217.5,31.3c0-0.3-0.1-0.4-0.5-0.6v-0.1c0.4-0.1,0.7-0.2,1.1-0.4c0,0,0.1,0,0.1,0.1v0.6
			c0.5-0.4,0.9-0.7,1.6-0.7c0.7,0,1,0.5,1,1.2v2.3c0,0.3,0.2,0.3,0.4,0.3h0.1v0.2c-0.3,0-0.6,0-0.9,0c-0.3,0-0.6,0-1,0v-0.2h0.1
			c0.2,0,0.4,0,0.4-0.3v-2.3c0-0.5-0.3-0.7-0.8-0.7c-0.3,0-0.7,0.2-1,0.4v2.7c0,0.3,0.2,0.3,0.4,0.3h0.1v0.2c-0.3,0-0.6,0-0.9,0
			s-0.6,0-1,0V34h0.1c0.2,0,0.4,0,0.4-0.3L217.5,31.3L217.5,31.3z"/>
		<path class="st0" d="M223.7,31.4c0.2,0,0.2-0.1,0.2-0.2c0-0.4-0.3-0.8-0.7-0.8c-0.5,0-0.9,0.4-1,1H223.7z M222.1,31.7
			c0,0.1,0,0.2,0,0.5c0.1,0.8,0.6,1.6,1.3,1.6c0.4,0,0.8-0.3,1.2-0.6l0.1,0.1c-0.4,0.5-0.9,1-1.7,1c-1.4,0-1.7-1.3-1.7-2
			c0-1.8,1.1-2.3,1.9-2.3c0.7,0,1.6,0.4,1.6,1.3c0,0.1,0,0.1,0,0.1l-0.1,0.1h-2.7V31.7z"/>
		<path class="st0" d="M225,33.8h0.2c0.2,0,0.4,0,0.4-0.3v-2.5c0-0.3-0.3-0.3-0.4-0.4v-0.1c0.7-0.3,1-0.5,1-0.5c0.1,0,0.1,0,0.1,0.1
			v0.7l0,0c0.2-0.4,0.6-0.9,1.1-0.9c0.2,0,0.5,0.1,0.5,0.4c0,0.2-0.1,0.4-0.4,0.4c-0.3,0-0.3-0.2-0.6-0.2c-0.1,0-0.7,0.2-0.7,0.7
			v2.1c0,0.3,0.1,0.3,0.4,0.3h0.5v0.2c-0.4,0-0.8,0-1.2,0c-0.4,0-0.7,0-1,0H225L225,33.8z"/>
		<path class="st0" d="M228.4,32.8c0.1,0.6,0.4,1,1.1,1c0.5,0,0.7-0.3,0.7-0.6c0-1-2-0.7-2-2.2c0-0.5,0.4-1.1,1.3-1.1
			c0.3,0,0.7,0.1,1,0.2l0.1,0.9h-0.2c-0.1-0.5-0.4-0.9-1-0.9c-0.4,0-0.7,0.2-0.7,0.6c0,1,2.1,0.7,2.1,2.2c0,0.6-0.4,1.2-1.6,1.2
			c-0.4,0-0.7-0.1-1-0.3l-0.1-1L228.4,32.8z"/>
		<path class="st0" d="M239,29.5h-0.3c-0.1-1-0.9-1.4-2-1.4c-1,0-2.5,0.7-2.5,2.8c0,1.9,1.3,3.1,2.7,3.1c0.9,0,1.7-0.6,1.8-1.6
			l0.2,0.1l-0.2,1.3c-0.4,0.2-1.3,0.4-2,0.4c-2.1,0-3.4-1.3-3.4-3.4c0-1.9,1.7-3.1,3.4-3.1c0.7,0,1.4,0.2,2.2,0.4L239,29.5z"/>
		<path class="st0" d="M239.3,33.8h0.1c0.2,0,0.4,0,0.4-0.3v-5c0-0.6-0.1-0.6-0.4-0.7v-0.1c0.4-0.1,0.7-0.3,0.9-0.4
			c0.1-0.1,0.1-0.1,0.2-0.1c0.1,0,0.1,0.1,0.1,0.1v6.2c0,0.3,0.2,0.3,0.4,0.3h0.1V34c-0.3,0-0.6,0-0.9,0s-0.6,0-1,0L239.3,33.8
			L239.3,33.8z"/>
		<path class="st0" d="M245,33.6c0,0.1,0.1,0.1,0.2,0.1c0.1,0,0.2,0,0.4,0v0.1c-0.4,0-1.1,0.2-1.3,0.3h-0.1v-0.7
			c-0.5,0.4-0.9,0.7-1.7,0.7c-0.4,0-1-0.3-1-1v-2.3c0-0.2,0-0.4-0.5-0.5v-0.1c0.3,0,1-0.1,1.1-0.1c0.1,0,0.1,0.1,0.1,0.2v2.3
			c0,0.3,0,1,0.7,1c0.3,0,0.7-0.2,1-0.5v-2.4c0-0.1-0.4-0.3-0.7-0.4v-0.1c0.7-0.1,1.3-0.1,1.3-0.1c0.1,0,0.1,0.1,0.1,0.1v3.3h0.3
			V33.6z"/>
		<path class="st0" d="M246.9,33.1c0,0.3,0.3,0.9,0.9,0.9c0.9,0,1.3-0.9,1.3-1.8c0-1-0.7-1.8-1.4-1.8c-0.3,0-0.6,0.2-0.8,0.4V33.1z
			 M246.9,30.6c0.4-0.3,0.8-0.6,1.3-0.6c1,0,1.7,0.9,1.7,1.9c0,1.1-0.8,2.4-2.2,2.4c-0.7,0-1-0.2-1.2-0.3l-0.2,0.2l-0.1-0.1
			c0.1-0.5,0.1-1,0.1-1.7v-3.8c0-0.6-0.1-0.6-0.4-0.7v-0.1c0.4-0.1,0.7-0.3,0.9-0.4c0.1-0.1,0.1-0.1,0.2-0.1s0.1,0.1,0.1,0.1v3.1
			h-0.2V30.6z"/>
		<path class="st0" d="M208.3,39.3L208.3,39.3c0.2,0,0.4,0,0.4-0.3v-2.5c0-0.2-0.1-0.3-0.4-0.3h-0.1v-0.1c0.1,0,0.4,0,0.7,0
			c0.2,0,0.5,0,0.7,0v0.1h-0.1c-0.1,0-0.4,0-0.4,0.3V39c0,0.2,0.1,0.3,0.4,0.3h0.1v0.1c-0.2,0-0.5,0-0.7,0s-0.5,0-0.7,0v-0.1H208.3z
			"/>
		<path class="st0" d="M209.8,39.4L209.8,39.4L209.8,39.4c-0.2-0.1-0.4-0.1-0.4-0.4v-2.6c0-0.3,0.2-0.3,0.4-0.3h0.1V36
			c-0.2,0-0.5,0-0.7,0s-0.5,0-0.7,0v0.1h0.1c0.1,0,0.4,0,0.4,0.3v2.5c0,0.3-0.2,0.3-0.4,0.3h-0.1v0.2c0.1,0,0.4,0,0.7,0
			C209.2,39.4,209.5,39.4,209.8,39.4 M209.8,39.4c-0.2,0-0.5,0-0.7,0c-0.2,0-0.5,0-0.7,0l0,0l0,0v-0.1l0,0l0,0h0.1
			c0.1,0,0.3,0,0.3-0.2v-2.6c0-0.2-0.1-0.2-0.3-0.2h-0.1l0,0v-0.1l0,0c0.1,0,0.4,0,0.7,0c0.2,0,0.5,0,0.7,0l0,0l0,0v0.1l0,0h-0.1
			c-0.1,0-0.3,0-0.3,0.2V39c0,0.2,0.1,0.2,0.3,0.2h0.1l0,0V39.4L209.8,39.4z"/>
		<path class="st0" d="M213.2,38.5L213.2,38.5v-1.9c0-0.4-0.3-0.4-0.4-0.4h-0.1v-0.1c0.2,0,0.4,0,0.7,0c0.2,0,0.4,0,0.6,0v0.1h-0.1
			c-0.2,0-0.4,0.1-0.4,0.6v2.3c0,0.1,0,0.3,0,0.4h-0.1l-2.5-2.8v2c0,0.4,0.1,0.5,0.4,0.5h0.1v0.2c-0.2,0-0.4,0-0.6,0
			c-0.2,0-0.4,0-0.7,0v-0.1h0.1c0.3,0,0.4-0.2,0.4-0.6v-2.1c0-0.3-0.2-0.4-0.4-0.4h-0.1v-0.1c0.1,0,0.4,0,0.5,0c0.1,0,0.3,0,0.4,0
			L213.2,38.5z"/>
		<path class="st0" d="M213.1,38.5L213.1,38.5L213.1,38.5L213.1,38.5z M213.2,38.5L213.2,38.5L213.2,38.5z M213.2,39.5h0.1
			c0-0.1,0-0.3,0-0.4v-2.3c0-0.6,0.2-0.6,0.4-0.6h0.1v-0.1c-0.2,0-0.4,0-0.6,0s-0.4,0-0.7,0v0.1h0.1c0.1,0,0.4,0.1,0.4,0.4v1.9l0,0
			l0,0l-2.2-2.5c-0.1,0-0.3,0-0.4,0s-0.4,0-0.5,0v0.1h0.1c0.2,0,0.4,0.1,0.4,0.4v2.1c0,0.4-0.1,0.6-0.4,0.6h-0.1v0.2
			c0.2,0,0.4,0,0.6,0c0.2,0,0.4,0,0.6,0v-0.1H211c-0.4,0-0.4-0.1-0.4-0.6v-2.1L213.2,39.5z M213.4,39.5h-0.2l-2.5-2.8v2
			c0,0.4,0.1,0.5,0.4,0.5h0.1l0,0v0.2l0,0c-0.2,0-0.4,0-0.6,0s-0.4,0-0.7,0l0,0l0,0v-0.1l0,0h0.1c0.3,0,0.4-0.2,0.4-0.6v-2.1
			c0-0.2-0.2-0.4-0.4-0.4h-0.1l0,0v-0.1l0,0c0.1,0,0.4,0,0.5,0c0.1,0,0.3,0,0.4,0l2.2,2.4v-1.8c0-0.4-0.2-0.4-0.4-0.4h-0.1l0,0v-0.1
			l0,0c0.2,0,0.4,0,0.7,0s0.4,0,0.6,0l0,0l0,0v0.1l0,0h-0.1c-0.2,0-0.4,0-0.4,0.6v2.3C213.4,39.2,213.4,39.4,213.4,39.5L213.4,39.5
			L213.4,39.5z"/>
		<path class="st0" d="M214.6,36.3c-0.4,0-0.4,0.1-0.4,0.4h-0.1c0-0.1,0.1-0.3,0.1-0.4c0-0.1,0-0.3,0-0.4h0.1
			c0.1,0.1,0.1,0.1,0.3,0.1h2.5c0.1,0,0.2,0,0.2-0.1h0.1c0,0.1-0.1,0.2-0.1,0.4s0,0.2,0,0.4l-0.1,0.1c0-0.1,0-0.4-0.4-0.4h-0.7V39
			c0,0.4,0.1,0.4,0.4,0.4h0.1v0.1c-0.1,0-0.5,0-0.7,0c-0.3,0-0.6,0-0.8,0v-0.1h0.1c0.3,0,0.4,0,0.4-0.4v-2.6L214.6,36.3L214.6,36.3z
			"/>
		<path class="st0" d="M216.5,39.4c-0.1,0-0.5,0-0.7,0c-0.3,0-0.6,0-0.8,0l0,0l0,0v-0.1l0,0h0.1c0.2,0,0.4,0,0.4-0.4v-2.6h-0.7l0,0
			l0,0h0.8v2.6c0,0.4-0.1,0.4-0.4,0.4h-0.2v0.1c0.2,0,0.5,0,0.7,0C216,39.4,216.3,39.4,216.5,39.4v-0.1h-0.1c-0.2,0-0.4-0.1-0.4-0.4
			v-2.6h0.8c0.3,0,0.4,0.3,0.4,0.4l0.1-0.1c0-0.1,0-0.2,0-0.4c0-0.2,0-0.2,0.1-0.4h-0.1c0,0.1-0.1,0.1-0.3,0.1h-2.5l0,0
			c-0.1,0-0.2,0-0.3-0.1h-0.1c0,0.1,0,0.2,0,0.4c0,0.2,0,0.2-0.1,0.4h0.1c0.1-0.3,0.1-0.4,0.4-0.4l0,0l0,0c-0.4,0-0.4,0.1-0.4,0.4
			l0,0l0,0h-0.2l0,0c0-0.1,0.1-0.3,0.1-0.4s0-0.3,0-0.4l0,0l0,0h0.1l0,0c0,0.1,0.1,0.1,0.2,0.1l0,0h2.5c0.1,0,0.2,0,0.2-0.1l0,0l0,0
			h0.1l0,0c0,0.1-0.1,0.2-0.1,0.4c0,0.2,0,0.2,0,0.4l0,0l0,0l-0.1,0.1l0,0c0-0.1,0-0.4-0.3-0.4H216v2.5c0,0.4,0.1,0.4,0.4,0.4h0.1
			l0,0V39.4L216.5,39.4z"/>
		<path class="st0" d="M217.5,39.3L217.5,39.3c0.2,0,0.4,0,0.4-0.3v-2.5c0-0.2-0.1-0.3-0.4-0.3h-0.1v-0.1c0.3,0,0.7,0,1.2,0
			c0.4,0,0.9,0,1.2,0c0,0.2,0,0.5,0,0.7l-0.1,0.1c0-0.3-0.1-0.5-0.6-0.5h-0.7v1.3h0.6c0.3,0,0.4-0.1,0.4-0.4h0.1c0,0.1,0,0.4,0,0.5
			c0,0.1,0,0.4,0,0.5h-0.1c0-0.3-0.1-0.4-0.4-0.4h-0.6v1.1c0,0.3,0.3,0.3,0.6,0.3c0.6,0,0.8-0.1,1-0.6h0.1c-0.1,0.2-0.1,0.5-0.1,0.7
			c-0.3,0-0.8,0-1.3,0C218.2,39.5,217.8,39.4,217.5,39.3L217.5,39.3L217.5,39.3z"/>
		<path class="st0" d="M220.1,39.4c0.1-0.2,0.1-0.4,0.1-0.7h-0.1c-0.1,0.5-0.4,0.6-1,0.6c-0.3,0-0.6,0-0.6-0.3v-1.1h0.6
			c0.3,0,0.4,0.2,0.4,0.4h0.1c0-0.1,0-0.4,0-0.5c0-0.1,0-0.4,0-0.5h-0.1c0,0.2-0.1,0.4-0.4,0.4h-0.6v-1.3h0.7c0.5,0,0.6,0.2,0.6,0.5
			h0.1c0-0.1,0-0.3,0-0.4s0-0.1,0-0.2c-0.3,0-0.8,0-1.2,0c-0.4,0-0.9,0-1.2,0v0.1h0.1c0.1,0,0.4,0,0.4,0.3v2.5
			c0,0.3-0.2,0.3-0.4,0.3h-0.1v0.1c0.3,0,0.8,0,1.3,0C219.3,39.4,219.8,39.4,220.1,39.4 M220.1,39.4c-0.3,0-0.8,0-1.3,0s-1,0-1.3,0
			l0,0l0,0v-0.1l0,0l0,0h0.1c0.1,0,0.3,0,0.3-0.2v-2.6c0-0.2-0.1-0.2-0.3-0.2h-0.1l0,0v-0.1l0,0c0.3,0,0.7,0,1.2,0
			c0.4,0,0.9,0,1.2,0l0,0l0,0c0,0.1,0,0.1,0,0.2c0,0.1,0,0.4,0,0.4l0,0l0,0l-0.1,0.1l0,0c0-0.3-0.1-0.5-0.5-0.5h-0.7v1.2h0.5
			c0.3,0,0.3-0.1,0.4-0.4l0,0l0,0h0.1l0,0c0,0.1,0,0.4,0,0.5c0,0.1,0,0.4,0,0.5l0,0l0,0h-0.1l0,0c0-0.3,0-0.4-0.4-0.4h-0.5V39
			c0,0.3,0.2,0.3,0.5,0.3c0.6,0,0.8,0,1-0.6l0,0l0,0l0.1,0.1l0,0C220.3,38.9,220.2,39.2,220.1,39.4L220.1,39.4L220.1,39.4z"/>
		<path class="st0" d="M221.5,37.7h0.2c0.4,0,0.7-0.1,0.7-0.7c0-0.4-0.3-0.7-0.7-0.7c-0.1,0-0.2,0-0.3,0v1.4H221.5z M220.9,36.5
			c0-0.4-0.2-0.4-0.4-0.4h-0.1V36c0.1,0,0.4,0,0.7,0c0.3,0,0.5,0,0.7,0c0.6,0,1.1,0.1,1.1,0.8c0,0.4-0.3,0.7-0.7,0.8l0.8,1.2
			c0.1,0.2,0.2,0.2,0.4,0.3v0.2c-0.1,0-0.3,0-0.4,0c-0.1,0-0.3,0-0.4,0c-0.4-0.4-0.7-1-1-1.7h-0.3v1c0,0.4,0.1,0.4,0.4,0.4h0.1v0.2
			c-0.3,0-0.5,0-0.8,0c-0.2,0-0.4,0-0.7,0v-0.1h0.1c0.1,0,0.4-0.1,0.4-0.2L220.9,36.5L220.9,36.5z"/>
		<path class="st0" d="M221.8,37.7c0.4,0,0.7-0.1,0.7-0.7c0-0.4-0.2-0.7-0.7-0.7c-0.1,0-0.2,0-0.2,0v1.3L221.8,37.7L221.8,37.7
			L221.8,37.7z M221.5,37.7L221.5,37.7v-1.4l0,0c0.1,0,0.1,0,0.3,0c0.4,0,0.7,0.3,0.7,0.7c0,0.6-0.3,0.7-0.7,0.7H221.5L221.5,37.7z
			 M221.5,37.9h0.3l0,0c0.3,0.5,0.6,1,1,1.6c0.1,0,0.3,0,0.4,0s0.3,0,0.4,0v-0.1c-0.2,0-0.3-0.1-0.4-0.3l-0.8-1.3l0,0
			c0.4-0.1,0.7-0.4,0.7-0.8c0-0.7-0.5-0.8-1.1-0.8c-0.2,0-0.4,0-0.7,0s-0.5,0-0.7,0v0.1h0.1c0.1,0,0.4,0,0.4,0.4V39
			c0,0.2-0.1,0.3-0.4,0.3l0,0v0.1c0.2,0,0.4,0,0.7,0c0.3,0,0.5,0,0.8,0v-0.1h-0.1c-0.2,0-0.4,0-0.4-0.4L221.5,37.9L221.5,37.9z
			 M223.8,39.4c-0.1,0-0.3,0-0.4,0c-0.1,0-0.3,0-0.4,0c-0.4-0.4-0.7-1-1-1.6h-0.3v1c0,0.4,0.1,0.4,0.4,0.4h0.1l0,0v0.1l0,0
			c-0.3,0-0.5,0-0.8,0c-0.2,0-0.4,0-0.7,0l0,0l0,0v-0.1l0,0h0.1c0.1,0,0.3-0.1,0.3-0.2v-2.5c0-0.3-0.1-0.3-0.3-0.4h-0.1l0,0v-0.1
			l0,0c0.1,0,0.4,0,0.7,0s0.5,0,0.7,0c0.6,0,1.1,0.1,1.1,0.8c0,0.4-0.3,0.7-0.7,0.8l0.8,1.2c0.1,0.2,0.2,0.2,0.4,0.3l0,0l0,0
			L223.8,39.4L223.8,39.4z"/>
		<path class="st0" d="M227.1,38.5L227.1,38.5v-1.9c0-0.4-0.3-0.4-0.4-0.4h-0.1v-0.1c0.2,0,0.4,0,0.7,0c0.2,0,0.4,0,0.6,0v0.1h-0.1
			c-0.2,0-0.4,0.1-0.4,0.6v2.3c0,0.1,0,0.3,0,0.4h-0.1l-2.5-2.8v2c0,0.4,0.1,0.5,0.4,0.5h0.1v0.2c-0.2,0-0.4,0-0.6,0
			c-0.2,0-0.4,0-0.7,0v-0.1h0.1c0.3,0,0.4-0.2,0.4-0.6v-2.1c0-0.3-0.2-0.4-0.4-0.4H224v-0.1c0.1,0,0.4,0,0.5,0c0.1,0,0.3,0,0.4,0
			L227.1,38.5z"/>
		<path class="st0" d="M227.1,38.5L227.1,38.5L227.1,38.5L227.1,38.5z M227.1,38.5L227.1,38.5L227.1,38.5z M227.2,39.5h0.1
			c0-0.1,0-0.3,0-0.4v-2.3c0-0.6,0.2-0.6,0.4-0.6h0.1v-0.1c-0.1,0-0.4,0-0.6,0c-0.2,0-0.4,0-0.7,0v0.1h0.1c0.1,0,0.4,0.1,0.4,0.4
			v1.9l0,0l0,0l-2.2-2.5c-0.1,0-0.3,0-0.4,0c-0.1,0-0.4,0-0.5,0v0.1h0.1c0.2,0,0.4,0.1,0.4,0.4v2.1c0,0.4-0.1,0.6-0.4,0.6h-0.1v0.2
			c0.2,0,0.4,0,0.6,0c0.2,0,0.4,0,0.6,0v-0.1h-0.1c-0.4,0-0.4-0.1-0.4-0.6v-2.1L227.2,39.5z M227.4,39.5h-0.2l-2.5-2.8v2
			c0,0.4,0.1,0.5,0.4,0.5h0.1l0,0v0.2l0,0c-0.2,0-0.4,0-0.6,0c-0.2,0-0.4,0-0.7,0l0,0l0,0v-0.1l0,0h0.1c0.3,0,0.4-0.2,0.4-0.6v-2.1
			c0-0.2-0.2-0.4-0.4-0.4h-0.1l0,0v-0.1l0,0c0.1,0,0.4,0,0.5,0c0.1,0,0.3,0,0.4,0l2.2,2.4v-1.8c0-0.4-0.2-0.4-0.4-0.4h-0.1l0,0v-0.1
			l0,0c0.2,0,0.4,0,0.7,0s0.4,0,0.6,0l0,0l0,0v0.1l0,0h-0.1c-0.2,0-0.4,0-0.4,0.6v2.3C227.4,39.2,227.4,39.4,227.4,39.5L227.4,39.5
			L227.4,39.5z"/>
		<path class="st0" d="M229.4,36.6L229.4,36.6L229,38h0.9L229.4,36.6z M228.7,38.8c-0.1,0.1-0.1,0.3-0.1,0.4s0.2,0.1,0.4,0.1h0.1
			v0.1c-0.2,0-0.4,0-0.6,0c-0.1,0-0.4,0-0.5,0v-0.1l0,0c0.1,0,0.4-0.1,0.4-0.3l0.7-2.3c0.1-0.1,0.1-0.4,0.1-0.6
			c0.1-0.1,0.4-0.1,0.4-0.2c0,0,0,0,0.1,0l0,0c0,0.1,0,0.1,0.1,0.1l0.9,2.5c0.1,0.1,0.1,0.4,0.1,0.4c0.1,0.1,0.1,0.2,0.3,0.2l0,0
			v0.3c-0.2,0-0.4,0-0.7,0s-0.4,0-0.7,0v-0.1h0.1c0.1,0,0.3,0,0.3-0.1c0-0.1-0.1-0.2-0.1-0.4l-0.1-0.5h-1L228.7,38.8z"/>
		<path class="st0" d="M229.4,36.6L229.4,36.6L229.4,36.6z M228.9,38h0.8l-0.4-1.3L228.9,38z M228.9,38l0.4-1.4l0,0l0,0l0,0l0,0l0,0
			l0,0l0,0l0.4,1.4H228.9z M229.9,39.4c0.2,0,0.4,0,0.7,0s0.4,0,0.6,0l0,0l0,0c-0.1,0-0.3-0.1-0.3-0.2c-0.1-0.1-0.1-0.3-0.1-0.4
			l-0.9-2.5c0-0.1,0-0.1-0.1-0.1l0,0l0,0l0,0c-0.1,0.1-0.3,0.1-0.4,0.2c0,0.1-0.1,0.4-0.1,0.6l-0.7,2.3c-0.1,0.2-0.2,0.3-0.4,0.3
			l0,0v-0.2c0.1,0,0.3,0,0.5,0c0.1,0,0.4,0,0.5,0l0,0l0,0c-0.1,0-0.4,0-0.4-0.1c0-0.1,0.1-0.2,0.1-0.4l0,0l0,0l0.1-0.5h1.1l0.2,0.6
			c0.1,0.1,0.1,0.3,0.1,0.4C230.3,39.4,230.1,39.4,229.9,39.4L229.9,39.4L229.9,39.4L229.9,39.4z M231.3,39.4c-0.2,0-0.4,0-0.7,0
			c-0.3,0-0.4,0-0.7,0l0,0l0,0v-0.1l0,0h0.1c0.1,0,0.3,0,0.3-0.1c0-0.1-0.1-0.1-0.1-0.3l-0.1-0.5h-1l-0.1,0.4
			c-0.1,0.1-0.1,0.3-0.1,0.4s0.1,0.1,0.4,0.1h0.1l0,0v0.1l0,0c-0.2,0-0.4,0-0.6,0c-0.1,0-0.4,0-0.5,0l0,0l0,0v-0.1l0,0l0,0
			c0.1,0,0.3-0.1,0.4-0.3l0.7-2.3c0.1-0.1,0.1-0.4,0.2-0.6c0.1-0.1,0.4-0.1,0.4-0.2c0,0,0,0,0.1,0c0,0,0,0,0.1,0
			c0,0.1,0,0.1,0.1,0.1l0.9,2.5c0.1,0.1,0.1,0.4,0.1,0.4c0.1,0.1,0.1,0.1,0.3,0.1h0.1l0,0L231.3,39.4L231.3,39.4z"/>
		<path class="st0" d="M231.5,36.3c-0.4,0-0.4,0.1-0.4,0.4H231c0-0.1,0.1-0.3,0.1-0.4c0-0.1,0-0.3,0-0.4h0.1
			c0.1,0.1,0.1,0.1,0.3,0.1h2.5c0.1,0,0.2,0,0.2-0.1h0.1c0,0.1,0,0.2-0.1,0.4c0,0.1,0,0.2,0,0.4l-0.1,0.1c0-0.1,0-0.4-0.4-0.4h-0.7
			V39c0,0.4,0.1,0.4,0.4,0.4h0.1v0.1c-0.1,0-0.5,0-0.7,0c-0.3,0-0.6,0-0.8,0v-0.1h0.1c0.2,0,0.4,0,0.4-0.4v-2.6L231.5,36.3
			L231.5,36.3z"/>
		<path class="st0" d="M233.4,39.4c-0.1,0-0.5,0-0.7,0c-0.3,0-0.6,0-0.8,0l0,0l0,0v-0.1l0,0h0.1c0.2,0,0.4,0,0.4-0.4v-2.6h-0.9l0,0
			l0,0h0.8v2.6c0,0.4-0.1,0.4-0.4,0.4h-0.1v0.1c0.2,0,0.5,0,0.7,0C232.8,39.4,233.2,39.4,233.4,39.4v-0.1h-0.1
			c-0.2,0-0.4-0.1-0.4-0.4v-2.6h0.8c0.3,0,0.4,0.3,0.4,0.4l0.1-0.1c0-0.1,0-0.2,0-0.4c0-0.2,0-0.2,0.1-0.4h-0.1
			c0,0.1-0.1,0.1-0.3,0.1h-2.5l0,0c-0.1,0-0.2,0-0.3-0.1h-0.1c0,0.1,0,0.2,0,0.4c0,0.2,0,0.2-0.1,0.4h0.1c0.1-0.3,0.1-0.4,0.4-0.4
			l0,0l0,0c-0.4,0-0.4,0.1-0.4,0.4l0,0l0,0H231l0,0c0-0.1,0.1-0.3,0.1-0.4s0-0.3,0-0.4l0,0l0,0h0.1l0,0c0,0.1,0.1,0.1,0.2,0.1l0,0
			h2.5c0.1,0,0.2,0,0.2-0.1l0,0l0,0h0.1l0,0c0,0.1-0.1,0.2-0.1,0.4c0,0.2,0,0.2,0,0.4l0,0l0,0l-0.1,0.1l0,0c0-0.1,0-0.4-0.3-0.4
			h-0.7v2.5c0,0.4,0.1,0.4,0.4,0.4h0.1l0,0L233.4,39.4L233.4,39.4z"/>
		<path class="st0" d="M234.5,39.3L234.5,39.3c0.2,0,0.4,0,0.4-0.3v-2.5c0-0.2-0.1-0.3-0.4-0.3h-0.1v-0.1c0.1,0,0.4,0,0.7,0
			c0.3,0,0.5,0,0.7,0v0.1l0,0c-0.1,0-0.4,0-0.4,0.3V39c0,0.2,0.1,0.3,0.4,0.3h0.1v0.1c-0.2,0-0.5,0-0.7,0s-0.5,0-0.7,0V39.3
			L234.5,39.3z"/>
		<path class="st0" d="M235.9,39.4L235.9,39.4L235.9,39.4c-0.1-0.1-0.4-0.1-0.4-0.4v-2.6c0-0.3,0.2-0.3,0.4-0.3h0.1V36
			c-0.2,0-0.5,0-0.7,0c-0.2,0-0.5,0-0.7,0v0.1h0.1c0.1,0,0.4,0,0.4,0.3v2.5c0,0.3-0.2,0.3-0.4,0.3h-0.1v0.2c0.1,0,0.4,0,0.7,0
			C235.5,39.4,235.7,39.4,235.9,39.4 M236,39.4c-0.2,0-0.5,0-0.7,0s-0.5,0-0.7,0l0,0l0,0v-0.1l0,0l0,0h0.1c0.1,0,0.3,0,0.3-0.2v-2.6
			c0-0.2-0.1-0.2-0.3-0.2h-0.1l0,0v-0.1l0,0c0.1,0,0.4,0,0.7,0s0.5,0,0.7,0l0,0l0,0v0.1l0,0h-0.1c-0.1,0-0.3,0-0.3,0.2V39
			c0,0.2,0.1,0.2,0.3,0.2h0.1l0,0V39.4L236,39.4z"/>
		<path class="st0" d="M238,39.3c0.9,0,1-0.8,1-1.6c0-0.7-0.4-1.7-1.2-1.7c-0.8,0-1,0.7-1,1.3C236.7,38.5,237.2,39.3,238,39.3
			 M237.9,36c1,0,1.9,0.6,1.9,1.7c0,1.1-0.7,1.9-1.9,1.9c-1,0-1.9-0.7-1.9-1.8S237,36,237.9,36"/>
		<path class="st0" d="M236.7,37.6c0-0.7,0.2-1.4,1.1-1.4c0.8,0,1.2,0.8,1.2,1.7c0,0.7-0.1,1.6-1.1,1.6l0,0l0,0c0.9,0,1-0.8,1-1.6
			c0-0.7-0.4-1.6-1.1-1.6C237.1,36.2,236.9,36.9,236.7,37.6c0.1,0.8,0.4,1.7,1.2,1.7l0,0l0,0C237.2,39.3,236.7,38.5,236.7,37.6
			 M236,37.8c0-1,0.7-1.9,1.9-1.9l0,0l0,0C237,36,236.1,36.7,236,37.8c0.1,1,0.8,1.7,1.9,1.7s1.9-0.7,1.9-1.9c0-1-0.8-1.7-1.9-1.7
			l0,0l0,0c1,0,2,0.6,2,1.7c0,1.1-0.8,2-1.9,2C237,39.5,236,38.8,236,37.8"/>
		<path class="st0" d="M243.1,38.5L243.1,38.5v-1.9c0-0.4-0.3-0.4-0.4-0.4h-0.1v-0.1c0.2,0,0.4,0,0.7,0c0.2,0,0.4,0,0.6,0v0.1h-0.1
			c-0.2,0-0.4,0.1-0.4,0.6v2.3c0,0.1,0,0.3,0,0.4h-0.1l-2.5-2.8v2c0,0.4,0.1,0.5,0.4,0.5h0.1v0.2c-0.2,0-0.4,0-0.6,0
			c-0.2,0-0.4,0-0.7,0v-0.1h0.1c0.3,0,0.4-0.2,0.4-0.6v-2.1c0-0.3-0.2-0.4-0.4-0.4H240v-0.1c0.1,0,0.4,0,0.5,0c0.1,0,0.3,0,0.4,0
			L243.1,38.5z"/>
		<path class="st0" d="M243.1,38.5L243.1,38.5L243.1,38.5L243.1,38.5z M243.1,38.5L243.1,38.5L243.1,38.5z M243.2,39.5h0.1
			c0-0.1,0-0.3,0-0.4v-2.3c0-0.6,0.2-0.6,0.4-0.6h0.1v-0.1c-0.2,0-0.4,0-0.6,0c-0.2,0-0.4,0-0.7,0v0.1h0.1c0.1,0,0.4,0.1,0.4,0.4
			v1.9l0,0l0,0l-2.2-2.5c-0.1,0-0.3,0-0.4,0c-0.1,0-0.4,0-0.5,0v0.1h0.1c0.2,0,0.4,0.1,0.4,0.4v2.1c0,0.4-0.1,0.6-0.4,0.6h-0.1v0.2
			c0.2,0,0.4,0,0.6,0c0.2,0,0.4,0,0.6,0v-0.1H241c-0.4,0-0.4-0.1-0.4-0.6v-2.1L243.2,39.5z M243.4,39.5h-0.2l-2.5-2.8v2
			c0,0.4,0.1,0.5,0.4,0.5h0.1l0,0v0.2l0,0c-0.2,0-0.4,0-0.6,0c-0.2,0-0.4,0-0.7,0l0,0l0,0v-0.1l0,0h0.1c0.3,0,0.4-0.2,0.4-0.6v-2.1
			c0-0.2-0.2-0.4-0.4-0.4h-0.1l0,0v-0.1l0,0c0.1,0,0.4,0,0.5,0c0.1,0,0.3,0,0.4,0l2.2,2.4v-1.8c0-0.4-0.2-0.4-0.4-0.4h-0.1l0,0v-0.1
			l0,0c0.2,0,0.4,0,0.7,0c0.3,0,0.4,0,0.6,0l0,0l0,0v0.1l0,0h-0.1c-0.2,0-0.4,0-0.4,0.6v2.3C243.3,39.2,243.4,39.4,243.4,39.5
			L243.4,39.5L243.4,39.5z"/>
		<path class="st0" d="M245.3,36.6L245.3,36.6l-0.4,1.3h0.9L245.3,36.6z M244.6,38.8c-0.1,0.1-0.1,0.3-0.1,0.4s0.2,0.1,0.4,0.1h0.1
			v0.1c-0.2,0-0.4,0-0.6,0c-0.1,0-0.4,0-0.5,0v-0.1l0,0c0.1,0,0.4-0.1,0.4-0.3l0.7-2.3c0.1-0.1,0.1-0.4,0.1-0.6
			c0.1-0.1,0.4-0.1,0.4-0.2c0,0,0,0,0.1,0l0,0c0,0.1,0,0.1,0.1,0.1l0.9,2.5c0.1,0.1,0.1,0.4,0.1,0.4c0.1,0.1,0.1,0.2,0.3,0.2l0,0
			v0.3c-0.2,0-0.4,0-0.7,0c-0.3,0-0.4,0-0.7,0v-0.1h0.1c0.1,0,0.3,0,0.3-0.1c0-0.1-0.1-0.2-0.1-0.4l-0.1-0.5h-1L244.6,38.8z"/>
		<path class="st0" d="M245.3,36.6L245.3,36.6L245.3,36.6z M244.9,38h0.8l-0.4-1.3L244.9,38z M244.8,38l0.4-1.4l0,0l0,0l0,0l0,0l0,0
			l0,0l0,0l0.4,1.4H244.8z M245.8,39.4c0.2,0,0.4,0,0.7,0c0.2,0,0.4,0,0.6,0l0,0l0,0c-0.1,0-0.3-0.1-0.3-0.2
			c-0.1-0.1-0.1-0.3-0.1-0.4l-0.9-2.5c0-0.1,0-0.1-0.1-0.1l0,0l0,0l0,0c-0.1,0.1-0.3,0.1-0.4,0.2c0,0.1-0.1,0.4-0.1,0.6l-0.7,2.3
			c-0.1,0.2-0.2,0.3-0.4,0.3l0,0v-0.2c0.1,0,0.3,0,0.5,0c0.1,0,0.4,0,0.5,0l0,0l0,0c-0.1,0-0.4,0-0.4-0.2c0-0.1,0.1-0.2,0.1-0.4l0,0
			l0,0l0.1-0.5h1.1l0.2,0.6c0.1,0.1,0.1,0.3,0.1,0.4C246.2,39.4,246,39.4,245.8,39.4L245.8,39.4L245.8,39.4L245.8,39.4z M247.2,39.4
			c-0.2,0-0.4,0-0.7,0s-0.4,0-0.7,0l0,0l0,0v-0.1l0,0h0.1c0.1,0,0.3,0,0.3-0.1c0-0.1-0.1-0.1-0.1-0.3l-0.1-0.5h-1l-0.1,0.4
			c-0.1,0.1-0.1,0.3-0.1,0.4s0.1,0.1,0.3,0.1h0.1l0,0v0.1l0,0c-0.2,0-0.4,0-0.6,0c-0.1,0-0.4,0-0.5,0l0,0l0,0v-0.1l0,0l0,0
			c0.1,0,0.3-0.1,0.4-0.3l0.7-2.3c0.1-0.1,0.1-0.4,0.2-0.6c0.1-0.1,0.4-0.1,0.4-0.2c0,0,0,0,0.1,0c0,0,0,0,0.1,0c0,0,0,0.1,0.1,0.1
			l0.9,2.5c0.1,0.1,0.1,0.4,0.1,0.4c0.1,0.1,0.1,0.1,0.3,0.1h0.1l0,0L247.2,39.4L247.2,39.4z"/>
		<path class="st0" d="M248.4,39c0,0.2,0.1,0.2,0.3,0.3c0.2,0,0.4,0,0.6,0c0.2,0,0.4-0.1,0.4-0.2c0.1-0.1,0.1-0.2,0.1-0.4h0.1
			c-0.1,0.3-0.1,0.5-0.1,0.8c-0.4,0-0.8,0-1.3,0c-0.4,0-0.8,0-1.3,0v-0.1h0.1c0.1,0,0.4,0,0.4-0.3v-2.6c0-0.2-0.1-0.3-0.4-0.3h-0.1
			v-0.1c0.2,0,0.5,0,0.7,0s0.4,0,0.7,0v0.1h-0.1c-0.1,0-0.3,0-0.3,0.2L248.4,39L248.4,39z"/>
		<path class="st0" d="M249.9,39.4c0.1-0.2,0.1-0.5,0.1-0.7h-0.1c0,0.1-0.1,0.2-0.1,0.3c-0.1,0.1-0.3,0.2-0.4,0.3
			c-0.1,0-0.2,0-0.4,0c-0.1,0-0.1,0-0.3,0c-0.1,0-0.3-0.1-0.3-0.3v-2.5c0-0.3,0.1-0.3,0.4-0.3h0.1v-0.1c-0.2,0-0.4,0-0.7,0
			s-0.5,0-0.7,0v0.1h0.1c0.1,0,0.4,0,0.4,0.3V39c0,0.3-0.2,0.4-0.4,0.4h-0.1l0,0c0.4,0,0.8,0,1.2,0
			C249.1,39.4,249.5,39.4,249.9,39.4 M250,39.4c-0.4,0-0.8,0-1.3,0c-0.4,0-0.8,0-1.3,0l0,0l0,0v-0.1l0,0h0.1c0.1,0,0.3,0,0.3-0.3
			v-2.5c0-0.2-0.1-0.2-0.3-0.2h-0.1l0,0v-0.1l0,0c0.2,0,0.5,0,0.7,0c0.2,0,0.4,0,0.7,0l0,0l0,0v0.1l0,0h-0.1c-0.1,0-0.3,0-0.3,0.2
			V39c0,0.1,0.1,0.2,0.3,0.2c0.1,0,0.1,0,0.3,0c0.1,0,0.2,0,0.4,0c0.2,0,0.4-0.1,0.4-0.2c0.1-0.1,0.1-0.2,0.1-0.3l0,0l0,0h0.1l0,0
			C250.1,38.9,250.1,39.1,250,39.4L250,39.4L250,39.4z"/>
	</g>
	<g>
		<path class="st0" d="M198.8,10.4h-29.1v29.2h29.1v-9.6c0.1-0.1,0.1-0.4,0.1-0.6c0-0.3-0.1-0.4-0.1-0.6"/>
		<g>
			<path class="st1" d="M172.3,23l-0.5-1.3l-0.5,1.3 M184.7,22.5c-0.1,0.1-0.2,0.1-0.4,0.1h-1v-0.7h1c0.1,0,0.3,0,0.4,0.1
				s0.1,0.1,0.1,0.3C184.8,22.3,184.7,22.5,184.7,22.5z M191.8,23l-0.5-1.3l-0.5,1.3H191.8z M178.5,24.5h-0.8v-2.7l-1.1,2.7h-0.7
				l-1.1-2.7v2.7H173l-0.3-0.7H171l-0.3,0.7h-0.9l1.4-3.4h1.2l1.3,3.2v-3.2h1.3l1,2.3l1-2.3h1.3L178.5,24.5L178.5,24.5z M181.8,24.5
				H179v-3.4h2.8v0.7h-2v0.6h1.9v0.7h-1.9v0.7h2V24.5z M185.8,21.9c0,0.5-0.4,0.8-0.6,0.9c0.1,0.1,0.3,0.1,0.4,0.3
				c0.1,0.1,0.1,0.3,0.1,0.6v0.7h-0.8v-0.4c0-0.2,0-0.5-0.1-0.7c-0.1-0.2-0.3-0.1-0.6-0.1h-0.8v1.2h-0.7v-3.4h2c0.4,0,0.7,0,1,0.1
				C185.7,21.3,185.8,21.5,185.8,21.9z M187.1,24.5h-0.8v-3.4h0.8V24.5z M196.7,24.5h-1.1l-1.6-2.5v2.5h-1.7l-0.3-0.7h-1.7l-0.3,0.7
				h-0.9c-0.4,0-0.9-0.1-1.1-0.4c-0.3-0.3-0.4-0.7-0.4-1.3c0-0.5,0.1-1,0.4-1.3c0.2-0.3,0.7-0.4,1.2-0.4h0.7v0.8h-0.7
				c-0.3,0-0.4,0.1-0.6,0.2c-0.1,0.1-0.2,0.4-0.2,0.7c0,0.4,0.1,0.6,0.2,0.7c0.1,0.1,0.4,0.1,0.5,0.1h0.4l1.1-2.7h1.2l1.3,3.2v-3.2
				h1.2l1.4,2.4v-2.4h0.8L196.7,24.5L196.7,24.5z M169.7,25.1h1.3l0.3-0.7h0.7l0.3,0.7h2.8v-0.6l0.2,0.6h1.4l0.2-0.6v0.6h6.8v-1.1
				h0.1c0.1,0,0.1,0,0.1,0.1v1h3.5v-0.3c0.3,0.1,0.7,0.3,1.3,0.3h1.4l0.3-0.7h0.7l0.3,0.7h2.8v-0.7l0.4,0.7h2.3v-4.8H195v0.5
				l-0.3-0.5h-2.3v0.5l-0.3-0.5H189c-0.5,0-1,0.1-1.3,0.3v-0.3h-2.2v0.3c-0.2-0.2-0.5-0.3-0.9-0.3h-7.9l-0.5,1.2l-0.5-1.2h-2.5v0.5
				l-0.3-0.5h-2.2l-1,2.3L169.7,25.1L169.7,25.1z"/>
		</g>
		<g>
			<path class="st1" d="M198.8,27.6h-1.4c-0.1,0-0.2,0-0.3,0.1c-0.1,0.1-0.1,0.1-0.1,0.2c0,0.1,0.1,0.2,0.1,0.2
				c0.1,0,0.1,0.1,0.3,0.1h0.4c0.4,0,0.7,0.1,0.9,0.3l0.1,0.1 M198.8,29.9c-0.2,0.3-0.6,0.4-1,0.4h-1.7v-0.7h1.6
				c0.1,0,0.2,0,0.3-0.1c0.1-0.1,0.1-0.1,0.1-0.2s-0.1-0.1-0.1-0.2c-0.1-0.1-0.1-0.1-0.3-0.1c-0.7,0-1.7,0-1.7-1c0-0.4,0.3-1,1.1-1
				h1.7v-0.7h-1.6c-0.4,0-0.7,0.1-1,0.3v-0.3h-2.3c-0.4,0-0.7,0.1-1,0.3v-0.3h-4v0.3c-0.3-0.2-0.8-0.3-1-0.3h-2.6v0.3
				c-0.2-0.2-0.8-0.3-1.1-0.3h-2.9l-0.7,0.7l-0.6-0.7h-4.3v4.8h4.3l0.7-0.7l0.7,0.7h2.7v-1.1h0.2c0.4,0,0.7,0,1.1-0.1v1.3h2.3v-1.2
				h0.1c0.1,0,0.1,0,0.1,0.1v1h6.7c0.4,0,0.8-0.1,1.1-0.3v0.3h2.2c0.4,0,0.8-0.1,1.2-0.2v-0.8C199,29.9,198.8,29.9,198.8,29.9z
				 M195.5,28.6c0.1,0.1,0.2,0.4,0.2,0.7c0,0.7-0.4,1-1.3,1h-1.7v-0.7h1.7c0.1,0,0.2,0,0.3-0.1c0.1-0.1,0.1-0.1,0.1-0.2
				c0-0.1-0.1-0.1-0.1-0.2c-0.1-0.1-0.1-0.1-0.3-0.1c-0.7,0-1.7,0-1.7-1c0-0.4,0.3-1,1.1-1h1.7v0.7h-1.6c-0.1,0-0.2,0-0.3,0.1
				s-0.1,0.1-0.1,0.2s0.1,0.2,0.1,0.2c0.1,0,0.1,0.1,0.3,0.1h0.4C195.1,28.3,195.4,28.4,195.5,28.6z M188.1,28.4
				c-0.1,0.1-0.2,0.1-0.4,0.1h-1v-0.7h1c0.1,0,0.3,0,0.4,0.1c0.1,0.1,0.1,0.1,0.1,0.3C188.2,28.4,188.3,28.3,188.1,28.4z
				 M188.7,28.8c0.1,0.1,0.3,0.1,0.4,0.3c0.1,0.1,0.1,0.3,0.1,0.6v0.6h-0.8v-0.4c0-0.2,0-0.5-0.1-0.7c-0.1-0.2-0.3-0.1-0.6-0.1h-0.8
				v1.3H186V27h2c0.4,0,0.7,0,1,0.1c0.2,0.1,0.4,0.4,0.4,0.7C189.2,28.4,188.9,28.7,188.7,28.8z M189.7,26.9h2.8v0.7h-2v0.6h1.9V29
				h-1.9v0.7h2v0.7h-2.8V26.9z M184.1,28.5h-1v-0.8h1c0.3,0,0.5,0.1,0.5,0.4C184.7,28.4,184.4,28.5,184.1,28.5z M182.3,30l-1.2-1.3
				l1.2-1.3V30z M179.1,29.6h-2v-0.7h1.8v-0.7h-1.8v-0.6h2.1l0.9,1L179.1,29.6z M185.6,28.1c0,0.9-0.7,1.1-1.4,1.1h-1v1.1h-1.7
				l-1-1.1l-1,1.1h-3.2v-3.4h3.3l1,1.1l1-1.1h2.6C184.8,26.9,185.6,27.1,185.6,28.1z"/>
		</g>
	</g>
	<g>
		<g>
			<path class="st0" d="M283,23.5c0,0.1,0,0.2,0,0.3v0.1c-0.1,0.5-0.3,0.9-0.6,1.2c-0.3,0.3-0.6,0.5-1,0.6c-0.4,0.1-0.8,0.1-1.3,0.1
				c-0.1,0-0.1,0-0.2,0c-0.1,0-0.1,0-0.2,0s-0.1,0-0.2,0c-0.1,0-0.1,0-0.1,0l-0.4,2.3c0,0.1,0,0.1-0.1,0.1c-0.1,0-0.1,0.1-0.1,0.1
				h-0.8c-0.1,0-0.1,0-0.1,0v-0.1l0,0l0,0l1-6c0-0.1,0.1-0.1,0.1-0.1c0.1-0.1,0.1-0.1,0.2-0.1c0.4-0.1,1-0.1,1.7-0.1
				c0.7,0,1.2,0.1,1.7,0.4C282.8,22.7,283,23,283,23.5L283,23.5L283,23.5z M281.7,23.5c0-0.2-0.1-0.4-0.3-0.5
				c-0.1-0.1-0.4-0.1-0.9-0.1c-0.1,0-0.2,0-0.4,0c-0.1,0-0.3,0-0.4,0l-0.4,2.1c0.3,0,0.5,0,0.7,0c0.4,0,0.7-0.1,1-0.2
				c0.2-0.1,0.4-0.4,0.4-0.7v-0.1C281.7,23.7,281.7,23.6,281.7,23.5z"/>
			<path class="st0" d="M285,24.3c-0.2,0-0.4,0-0.7,0.1c-0.2,0.1-0.4,0.1-0.7,0.1c-0.1,0-0.1,0-0.1,0s-0.1,0-0.1-0.1
				c0,0,0-0.1,0-0.2l0.1-0.4v-0.1c0,0,0-0.1,0.1-0.1l0.1-0.1c0.5-0.1,1-0.2,1.6-0.2c0.4,0,0.8,0.1,1.1,0.3c0.2,0.2,0.4,0.5,0.4,0.9
				c0,0.1,0,0.2,0,0.4l-0.5,2.9c0,0.1,0,0.1-0.1,0.1l-0.1,0.1c-0.2,0.1-0.4,0.1-0.5,0.1s-0.3,0.1-0.4,0.1c-0.2,0-0.4,0-0.7,0
				c-1.2,0-1.9-0.4-1.9-1.2c0-0.1,0-0.2,0-0.4c0.1-0.2,0.1-0.4,0.2-0.6c0.1-0.1,0.2-0.3,0.4-0.4c0.1-0.1,0.4-0.1,0.7-0.2
				s0.6-0.1,0.9-0.1h0.7c0.1-0.3,0.1-0.5,0.1-0.6s-0.1-0.3-0.1-0.4C285.4,24.3,285.3,24.3,285,24.3z M285.1,27.4l0.2-1.3h-0.6
				c-0.3,0-0.6,0.1-0.7,0.1c-0.1,0.1-0.2,0.2-0.3,0.5c0,0.1,0,0.1,0,0.2c0,0.1,0.1,0.3,0.1,0.4c0.1,0.1,0.3,0.1,0.6,0.1
				C284.8,27.4,285,27.4,285.1,27.4z"/>
			<path class="st0" d="M288.8,30c-0.3,0-0.5,0-0.8-0.1c-0.3-0.1-0.5-0.1-0.7-0.2c-0.1-0.1-0.1-0.1-0.1-0.1v-0.1l0.1-0.4
				c0-0.1,0.1-0.1,0.1-0.1h0.1c0.2,0.1,0.4,0.1,0.7,0.1c0.3,0.1,0.5,0.1,0.8,0.1c0.3,0,0.5-0.1,0.7-0.1c0.1-0.1,0.2-0.3,0.2-0.6
				v-0.1c-0.3,0.1-0.5,0.1-0.7,0.1c-0.5,0-1-0.1-1.3-0.4c-0.3-0.3-0.4-0.7-0.4-1.2c0-0.2,0-0.4,0.1-0.5l0.1-0.7
				c0.1-0.5,0.2-1,0.4-1.3c0.2-0.3,0.4-0.5,0.7-0.7c0.3-0.1,0.7-0.2,1.2-0.2c0.3,0,0.5,0,0.8,0.1c0.3,0.1,0.6,0.1,0.8,0.1
				c0.1,0,0.1,0.1,0.1,0.1l0.1,0.1l0,0l0,0l-0.7,4.4c-0.1,0.4-0.2,0.7-0.4,1c-0.1,0.2-0.4,0.4-0.7,0.5C289.6,30,289.2,30,288.8,30z
				 M290.5,24.3c-0.1,0-0.2-0.1-0.4-0.1c-0.2,0-0.3,0-0.4,0c-0.2,0-0.4,0.1-0.6,0.1c-0.1,0.1-0.3,0.2-0.4,0.4
				c-0.1,0.1-0.1,0.4-0.2,0.7l-0.1,0.7c-0.1,0.2-0.1,0.4-0.1,0.5c0,0.2,0.1,0.4,0.1,0.5c0.1,0.1,0.3,0.1,0.6,0.1
				c0.2,0,0.5,0,0.8-0.1L290.5,24.3z"/>
			<path class="st0" d="M296.3,25.1c0,0.1,0,0.3-0.1,0.4l-0.1,0.7c-0.2,1.4-1,2.2-2.5,2.2c-0.4,0-0.7-0.1-0.9-0.2
				c-0.2-0.1-0.4-0.4-0.6-0.6c-0.1-0.2-0.2-0.5-0.2-0.8c0-0.1,0-0.3,0-0.4l0.1-0.7c0.1-0.7,0.4-1.2,0.8-1.7c0.4-0.4,0.9-0.5,1.7-0.5
				c0.4,0,0.7,0.1,1,0.2c0.2,0.1,0.4,0.4,0.5,0.6C296.3,24.5,296.3,24.7,296.3,25.1z M295.2,25.1c0-0.2-0.1-0.4-0.1-0.6
				c-0.1-0.1-0.3-0.2-0.5-0.2c-0.3,0-0.5,0.1-0.7,0.3c-0.2,0.1-0.3,0.4-0.4,0.9l-0.1,0.7c0,0.1,0,0.2,0,0.4c0,0.5,0.2,0.7,0.7,0.7
				c0.6,0,1-0.4,1.1-1.1l0.1-0.7C295.2,25.4,295.2,25.3,295.2,25.1z"/>
			<path class="st0" d="M301.4,22.1L301.4,22.1C301.4,22.2,301.4,22.2,301.4,22.1l-0.1,0.6c0,0.1,0,0.1-0.1,0.1
				c-0.1,0-0.1,0.1-0.1,0.1h-1.8c-0.2,0-0.4,0.1-0.5,0.1c-0.1,0.1-0.2,0.3-0.2,0.6l-0.1,0.9h2.4c0.1,0,0.1,0,0.1,0.1
				s0.1,0.1,0.1,0.1l0,0l0,0l-0.1,0.6c0,0.1,0,0.1-0.1,0.1c-0.1,0.1-0.1,0.1-0.1,0.1h-2.4l-0.1,1.1c0,0.1,0,0.2,0,0.3
				c0,0.1,0.1,0.3,0.1,0.4c0.1,0.1,0.2,0.1,0.4,0.1h1.8c0.1,0,0.1,0.1,0.1,0.1l0,0l0,0l-0.1,0.5c0,0.1-0.1,0.1-0.2,0.1s-0.1,0-0.2,0
				c-0.1,0-0.2,0-0.4,0.1c-0.1,0-0.3,0-0.4,0s-0.3,0-0.5,0c-0.5,0-0.9-0.1-1.2-0.3c-0.3-0.2-0.4-0.5-0.4-1c0-0.1,0-0.3,0-0.4l0.5-3
				c0.1-0.4,0.1-0.7,0.3-0.9c0.1-0.2,0.3-0.4,0.4-0.5c0.2-0.1,0.4-0.2,0.6-0.2c0.2,0,0.5-0.1,0.8-0.1c0.4,0,0.7,0,1,0
				C301.2,21.8,301.2,22.1,301.4,22.1C301.4,21.9,301.4,21.9,301.4,22.1z"/>
			<path class="st0" d="M304.9,21.8L304.9,21.8l-0.1,0.5c0,0.1,0,0.1-0.1,0.1l-0.1,0.1h-0.4c-0.1,0-0.2,0-0.3,0.1
				c-0.1,0-0.1,0.1-0.1,0.1c-0.1,0.1-0.1,0.1-0.1,0.3l-0.1,0.4h0.8c0.1,0,0.1,0.1,0.1,0.1l0,0l-0.1,0.5c0,0.1,0,0.1-0.1,0.1
				l-0.1,0.1h-0.9l-0.7,4c-0.1,0.4-0.1,0.7-0.3,0.9c-0.1,0.2-0.3,0.3-0.5,0.4c-0.2,0.1-0.5,0.1-0.8,0.1c-0.1,0-0.3,0-0.5-0.1
				c0,0-0.1,0-0.1-0.1l-0.1-0.1l0,0l0.1-0.5c0-0.1,0.1-0.1,0.1-0.1h0.4c0.2,0,0.4,0,0.4-0.1c0.1-0.1,0.1-0.2,0.1-0.4l0.7-4l-0.7-0.1
				c-0.1,0-0.1-0.1-0.1-0.1l0,0l0.1-0.4c0-0.1,0-0.1,0.1-0.1l0.1-0.1h0.7l0.1-0.4c0.1-0.3,0.1-0.5,0.2-0.7c0.1-0.1,0.2-0.3,0.4-0.4
				c0.1-0.1,0.3-0.1,0.4-0.1c0.1,0,0.4-0.1,0.7-0.1C304.5,21.6,304.7,21.6,304.9,21.8L304.9,21.8C304.9,21.7,304.9,21.7,304.9,21.8z
				"/>
			<path class="st0" d="M306.1,28.4c-0.3,0-0.5,0-0.7-0.1c-0.2-0.1-0.4-0.1-0.6-0.3c-0.1-0.1-0.3-0.3-0.4-0.5
				c-0.1-0.2-0.1-0.4-0.1-0.7c0-0.2,0-0.4,0.1-0.5l0.1-0.5c0.1-0.7,0.4-1.3,0.8-1.7c0.4-0.4,0.9-0.5,1.7-0.5c0.5,0,1,0.1,1.3,0.4
				c0.3,0.3,0.4,0.7,0.4,1.3c0,0.1,0,0.3-0.1,0.4l-0.1,0.4c0,0.1-0.1,0.2-0.2,0.2h-2.8c0,0.2-0.1,0.3-0.1,0.4c0,0.2,0.1,0.4,0.2,0.6
				c0.1,0.1,0.4,0.2,0.7,0.2c0.4,0,0.9-0.1,1.6-0.3h0.1c0.1,0,0.1,0,0.1,0.1v0.1l-0.1,0.5c0,0.1,0,0.1-0.1,0.1l-0.1,0.1
				c-0.1,0.1-0.3,0.1-0.4,0.1s-0.3,0.1-0.5,0.1C306.5,28.4,306.4,28.4,306.1,28.4z M307.5,25.1c0-0.2-0.1-0.4-0.2-0.5
				s-0.3-0.2-0.5-0.2c-0.6,0-1,0.4-1.1,1h1.9C307.5,25.4,307.5,25.2,307.5,25.1z"/>
			<path class="st0" d="M310.6,28.4c-0.2,0-0.4,0-0.7-0.1c-0.2-0.1-0.4-0.1-0.5-0.3c-0.1-0.1-0.3-0.3-0.4-0.5s-0.1-0.4-0.1-0.7
				c0-0.1,0-0.2,0.1-0.4l0.1-0.8c0.1-0.5,0.2-0.9,0.4-1.2c0.2-0.3,0.4-0.5,0.7-0.7c0.3-0.1,0.6-0.2,1-0.2s0.7,0.1,1,0.3
				c0.1,0.1,0.1,0.1,0.1,0.1l0,0l0,0l-0.1,0.5c0,0.1-0.1,0.1-0.1,0.1l0,0c-0.4-0.1-0.7-0.1-1-0.1c-0.3,0-0.5,0.1-0.7,0.2
				c-0.1,0.1-0.3,0.4-0.4,0.8l-0.1,0.8c0,0.1-0.1,0.3-0.1,0.4c0,0.2,0.1,0.4,0.1,0.5c0.1,0.1,0.3,0.1,0.5,0.1c0.2,0,0.6-0.1,1-0.2
				h0.1c0.1,0,0.1,0,0.1,0.1v0.1l-0.1,0.6c0,0.1,0,0.1-0.1,0.1l-0.1,0.1c-0.1,0.1-0.3,0.1-0.5,0.1C311,28.4,310.8,28.4,310.6,28.4z"
				/>
			<path class="st0" d="M316,23.6L316,23.6l-0.1,0.5c0,0.1,0,0.1-0.1,0.1c-0.1,0-0.1,0.1-0.1,0.1h-0.7l-0.4,2.7
				c0,0.1-0.1,0.2-0.1,0.3s0,0.1,0.1,0.1s0.1,0,0.2,0h0.4c0.1,0,0.1,0,0.1,0.1l0,0v0.5c0,0.1-0.1,0.1-0.1,0.1
				c-0.2,0.1-0.4,0.1-0.6,0.1c-0.4,0-0.7-0.1-0.9-0.2c-0.2-0.1-0.3-0.4-0.3-0.7c0-0.1,0-0.2,0.1-0.4l0.4-2.7l-0.7-0.1
				c-0.1,0-0.1-0.1-0.1-0.1l0,0l0.1-0.4c0-0.1,0-0.1,0.1-0.1l0.1-0.1h0.8l0.1-0.7c0-0.1,0.1-0.1,0.2-0.1l0.8-0.1l0,0
				c0.1,0,0.1,0,0.1,0.1l0,0l-0.1,0.9h0.7c0.1,0,0.1,0,0.1,0.1C316,23.5,316,23.5,316,23.6z"/>
			<path class="st0" d="M317.7,23.6L317.7,23.6l-0.7,4.6c0,0.1,0,0.1-0.1,0.1c-0.1,0.1-0.1,0.1-0.1,0.1h-0.7c-0.1,0-0.1,0-0.1-0.1
				l-0.1-0.1l0,0l0.7-4.6c0-0.1,0-0.1,0.1-0.1l0.1-0.1h0.7C317.7,23.4,317.7,23.5,317.7,23.6z M318,21.8L318,21.8l-0.1,0.7
				c0,0.1,0,0.1-0.1,0.1c-0.1,0-0.1,0.1-0.1,0.1h-0.8c-0.1,0-0.1,0-0.1-0.1l-0.1-0.1l0,0l0.1-0.7c0-0.1,0-0.1,0.1-0.1
				c0.1,0,0.1-0.1,0.1-0.1h0.8C318,21.6,318,21.7,318,21.8z"/>
			<path class="st0" d="M322.6,23.6L322.6,23.6l-1.8,4c-0.1,0.3-0.3,0.5-0.5,0.6s-0.4,0.1-0.7,0.1c-0.5,0-0.9-0.3-0.9-0.8l-0.4-3.9
				l0,0c0-0.1,0-0.1,0.1-0.1l0.1-0.1h0.8c0.1,0,0.1,0.1,0.1,0.1l0.1,3.6c0,0.1,0.1,0.2,0.1,0.2c0.1,0,0.1-0.1,0.2-0.2l1.4-3.6
				c0.1-0.1,0.1-0.1,0.2-0.1h0.9C322.5,23.4,322.6,23.5,322.6,23.6z"/>
			<path class="st0" d="M326.5,25.1c0,0.1,0,0.3-0.1,0.4l-0.1,0.7c-0.2,1.4-1,2.2-2.5,2.2c-0.4,0-0.7-0.1-0.9-0.2
				c-0.2-0.1-0.4-0.4-0.6-0.6c-0.1-0.2-0.2-0.5-0.2-0.8c0-0.1,0-0.3,0-0.4l0.1-0.7c0.1-0.7,0.4-1.2,0.8-1.7s0.9-0.5,1.7-0.5
				c0.4,0,0.7,0.1,1,0.2c0.2,0.1,0.4,0.4,0.5,0.6C326.4,24.5,326.5,24.7,326.5,25.1z M325.4,25.1c0-0.2-0.1-0.4-0.1-0.6
				c-0.1-0.1-0.3-0.2-0.5-0.2c-0.3,0-0.5,0.1-0.7,0.3c-0.2,0.1-0.3,0.4-0.4,0.9l-0.1,0.7c0,0.1,0,0.2,0,0.4c0,0.5,0.2,0.7,0.7,0.7
				c0.6,0,1-0.4,1.1-1.1l0.1-0.7C325.4,25.4,325.4,25.3,325.4,25.1z"/>
		</g>
		<path class="st0" d="M268.6,18.6c-2.8-1.6-5.3-2.4-6.7-2.4c-0.4,0-0.7,0.1-0.9,0.2c-1.2,0.7-2,5.5-1.7,10.5c0.2,4,1,6.1,1.7,6.5
			c1.2,0.6,5.5-1,9.7-3.7c3.6-2.3,5.2-4,5.2-4.8C275.8,23.7,272.6,20.9,268.6,18.6z M268,27.4c-0.7,0.1-1.4,0.2-2.3,0.2
			c-0.1,0-0.2,0-0.4,0c-0.1,0-0.3,0-0.4,0s-0.2,0-0.4,0c-0.1,0-0.2,0-0.2,0l-0.7,3c0,0.1-0.1,0.1-0.1,0.1c-0.1,0.1-0.1,0.1-0.2,0.1
			h-1.6c-0.1,0-0.1,0-0.1-0.1c-0.1-0.1-0.1-0.1-0.1-0.1v-0.1l0,0l1-5h3.4l-0.2,1.2l3-2.6l-2.2-2.6l-0.1,1h-3.3l0.2-1.1
			c0-0.1,0.1-0.2,0.1-0.3c0.1-0.1,0.2-0.1,0.4-0.1c0.8-0.1,1.9-0.1,3.1-0.1c1.2,0,2.2,0.2,2.8,0.6c0.7,0.4,1,1,1,1.8
			C270.8,24.9,270,27,268,27.4z"/>
	</g>
	<g>
		<g>
			<path class="st0" d="M441.5,15.6l-6.2,18.5h-62.7l6.2-18.5L441.5,15.6 M443,14.6h-65l-6.8,20.7H436L443,14.6L443,14.6z"/>
		</g>
		<g>
			<polygon class="st0" points="371.1,35.3 333.1,35.3 340.1,14.6 378,14.6 			"/>
		</g>
		<g>
			<g>
				<polygon class="st2" points="429.2,22.6 422.6,24.4 422.9,21.8 429.5,20 				"/>
				<polygon class="st2" points="428.8,26 420.6,27.6 420.9,25.2 429.1,23.5 				"/>
				<polygon class="st0" points="428.8,26 422.5,24.3 422.8,21.8 429.1,23.5 				"/>
				<polygon class="st0" points="428.4,29.9 420.6,27.6 420.9,25.2 428.7,27.3 				"/>
			</g>
			<g>
				<polygon class="st0" points="385.9,22.8 390.6,22.8 390.5,23.8 386.8,23.8 386.6,25.6 389.9,25.6 389.7,26.6 386.5,26.6 
					386.3,28.4 389.9,28.4 389.8,29.4 385,29.4 				"/>
				<path class="st0" d="M391.4,25.4h-0.6l0.1-0.9h0.6v-0.3c0.1-0.5,0.3-0.9,0.5-1.2c0.3-0.3,0.6-0.4,1.1-0.4c0.4,0,0.6,0.1,0.9,0.1
					l-0.1,0.9c-0.2-0.1-0.4-0.1-0.6-0.1c-0.4,0-0.7,0.2-0.7,0.7v0.3h1.2l-0.1,0.9h-1.2l-0.5,4h-1.1L391.4,25.4z"/>
				<path class="st0" d="M393.5,26.9L393.5,26.9c0.2-1.4,1.3-2.6,2.7-2.6c1.6,0,2.2,1.2,2,2.7c0,0.1,0,0.2-0.1,0.3h-3.6
					c0,0.8,0.5,1.2,1.2,1.2c0.5,0,0.9-0.2,1.4-0.6l0.6,0.6c-0.5,0.5-1.2,0.9-2.1,0.9C394.3,29.5,393.3,28.5,393.5,26.9 M397.3,26.6
					c0-0.7-0.3-1.3-1-1.3c-0.7,0-1.2,0.5-1.4,1.3H397.3z"/>
				<path class="st0" d="M398.7,26.9L398.7,26.9c0.2-1.4,1.4-2.6,2.9-2.6c0.9,0,1.4,0.3,1.9,0.8l-0.8,0.7c-0.3-0.4-0.6-0.6-1.1-0.6
					c-0.8,0-1.4,0.7-1.7,1.6l0,0c-0.1,0.9,0.4,1.6,1.2,1.6c0.5,0,0.9-0.2,1.3-0.6l0.6,0.7c-0.5,0.5-1.1,0.9-2.1,0.9
					C399.4,29.5,398.5,28.4,398.7,26.9"/>
				<path class="st0" d="M403.9,28.1l0.3-2.6h-0.6l0.1-0.9h0.6l0.2-1.3h1.1l-0.2,1.3h1.3l-0.1,0.9h-1.3l-0.3,2.5
					c-0.1,0.4,0.1,0.6,0.5,0.6c0.2,0,0.5-0.1,0.7-0.2l-0.1,0.9c-0.3,0.2-0.6,0.2-1,0.2C404.2,29.5,403.7,29.1,403.9,28.1"/>
				<path class="st0" d="M407.5,24.4h1.1l-0.6,5h-1.1L407.5,24.4z M407.7,22.6h1.2l-0.1,1h-1.2L407.7,22.6z"/>
				<polygon class="st0" points="409.2,24.4 410.3,24.4 411.1,28.1 413,24.4 414.1,24.4 411.4,29.4 410.5,29.4 				"/>
				<path class="st0" d="M416.7,29.4l0.1-0.6c-0.4,0.4-0.9,0.7-1.7,0.7c-0.9,0-1.7-0.5-1.6-1.6l0,0c0.1-1.1,1-1.7,2.2-1.7
					c0.6,0,0.9,0.1,1.3,0.2v-0.1c0.1-0.7-0.3-1-1-1c-0.5,0-0.9,0.1-1.4,0.3l-0.2-0.9c0.5-0.2,1.1-0.4,1.9-0.4c1.4,0,2.1,0.7,1.9,2.1
					l-0.4,2.9h-1V29.4z M417,27.3c-0.3-0.1-0.6-0.2-1.1-0.2c-0.7,0-1.1,0.3-1.2,0.7l0,0c-0.1,0.5,0.3,0.7,0.8,0.7
					c0.7,0,1.3-0.4,1.4-1L417,27.3z"/>
			</g>
		</g>
		<g>
			<path class="st1" d="M342.4,24.9L342.4,24.9c0-1.1,0.8-2.1,2.1-2.1c0.7,0,1.2,0.2,1.6,0.6l-0.6,0.6c-0.3-0.3-0.6-0.4-1-0.4
				c-0.7,0-1.1,0.6-1.1,1.2l0,0c0,0.7,0.5,1.2,1.1,1.2c0.4,0,0.7-0.2,1-0.5l0.6,0.6c-0.4,0.4-0.9,0.7-1.7,0.7
				C343.3,27,342.4,26.1,342.4,24.9z"/>
			<path class="st1" d="M346.7,24.9L346.7,24.9c0-1.1,0.9-2.1,2.2-2.1s2.2,0.9,2.2,2.1l0,0c0,1.1-0.9,2.1-2.2,2.1
				S346.7,26.1,346.7,24.9z M350.1,24.9L350.1,24.9c0-0.7-0.5-1.2-1.2-1.2c-0.7,0-1.2,0.6-1.2,1.2l0,0c0,0.7,0.5,1.2,1.2,1.2
				C349.6,26.2,350.1,25.7,350.1,24.9z"/>
			<path class="st1" d="M351.9,22.9h0.9l1,1.8l1-1.8h0.9V27h-0.9v-2.7l-1.1,1.8l0,0l-1.1-1.8V27h-0.8v-4.1H351.9z"/>
			<path class="st1" d="M356.9,22.9h1.7c0.9,0,1.6,0.6,1.6,1.4l0,0c0,0.9-0.7,1.4-1.7,1.4h-0.7V27h-0.9v-4.1H356.9z M358.5,24.9
				c0.4,0,0.7-0.3,0.7-0.6l0,0c0-0.4-0.3-0.6-0.7-0.6h-0.7v1.2H358.5z"/>
			<path class="st1" d="M360.8,22.9h1.9c0.5,0,0.9,0.1,1.1,0.4c0.2,0.2,0.3,0.5,0.3,0.9l0,0c0,0.6-0.3,1-0.8,1.2l1,1.4h-1l-0.8-1.3
				h-0.7V27h-0.9V22.9z M362.5,24.8c0.4,0,0.7-0.2,0.7-0.6l0,0c0-0.4-0.3-0.6-0.7-0.6h-0.9v1.1h0.9V24.8z"/>
			<path class="st1" d="M366.3,22.9h0.8l1.8,4.1H368l-0.4-0.9h-1.7l-0.4,0.9h-0.9L366.3,22.9z M367.3,25.3l-0.5-1.3l-0.5,1.3H367.3z
				"/>
		</g>
	</g>
</g>
</svg>
