<?xml version="1.0" encoding="utf-8"?>
<!-- Generator: Adobe Illustrator 23.0.1, SVG Export Plug-In . SVG Version: 6.00 Build 0)  -->
<svg version="1.1" id="Capa_1" xmlns="http://www.w3.org/2000/svg" xmlns:xlink="http://www.w3.org/1999/xlink" x="0px" y="0px"
	 viewBox="0 0 500 500" style="enable-background:new 0 0 500 500;" xml:space="preserve">
<style type="text/css">
	.st0{fill:#FCD700;}
</style>
<g>
	<circle class="st0" cx="250" cy="250" r="250"/>
	<g>
		<path d="M250.1,381.5c-44.2,0-88.4,0-132.5,0c-3.8,0-7.8,0.4-11.4-0.5c-2.4-0.6-5.2-2.9-6.2-5.1c-0.6-1.3,1.9-4,3-6.1
			c2.1-4.4,6-8.9,6-13.3c0.5-37.8,0.5-75.6,0-113.4c-0.1-5.2-2.9-11.3-6.5-15.3c-15.1-17.1-16.7-29.1-5.2-49.2
			c8.9-15.5,17.9-30.8,26.5-46.5c5-9.2,12-13.5,22.6-13.5c69.2,0.1,138.5,0.2,207.7,0c10.6,0,17.5,4.5,22.5,13.6
			c9,16.4,18.5,32.5,27.7,48.7c9.9,17.4,7.7,30.8-5.7,46.1c-4,4.5-7.1,11.4-7.2,17.3c-0.6,37.4-0.5,74.8,0,112.1
			c0.1,4.5,3.9,8.9,6.1,13.3c1,2.1,3.6,4.8,3,6.1c-1,2.2-3.7,4.5-6.2,5.1c-3.6,0.9-7.6,0.6-11.4,0.6
			C338.4,381.5,294.3,381.5,250.1,381.5z M335.7,201.5c4.8,17.6,16.2,26.3,31.8,25.7c14.8-0.6,25.7-10,28.4-22.5
			c-5.9-3.3-11.2-6.3-16.5-9.3c4.1-3.2,8.1-6.3,12.6-9.8c-8.4-14.9-16.6-30.7-26.2-45.7c-2.6-4.1-9.1-7.9-13.9-7.9
			c-68-0.5-136-0.4-204-0.2c-3.8,0-9.4,1.4-11,4.1c-10.4,16.8-19.8,34.1-30.5,52.9c7.2,0,11.8,0,16.4,0c76.5,0,153,0,229.4,0
			c3.4,0,7.1-0.8,10.1,0.3c3,1.1,5.4,4.1,8,6.2c-2.7,2.1-5.3,5.7-8.2,6C353.8,202.1,345.2,201.5,335.7,201.5z M293.5,369.3
			c0-6.6,0-11.2,0-15.8c0-29.3,0.4-58.7-0.2-88c-0.3-11.9,3.1-17.1,15.7-16.3c14,0.9,28.1,0.8,42,0c11.1-0.7,14.9,3,14.6,14.4
			c-0.7,31.4-0.1,62.9-0.3,94.3c0,8.1,2.1,12.3,11.1,8.8c0-42.5,0-84.7,0-128c-21.2,3.9-37.5-3.3-49.9-19.1
			c-26.7,26.9-46.7,26.9-77.7,0.6c-27,26.8-47.8,26.8-77.1-0.7c-12,16.7-29.3,21.8-50.1,20.1c0,41.9-0.2,82.2,0.5,122.4
			c0,2.4,6.6,6.8,10.2,6.8c26.8,0.6,53.5,0.3,80.3,0.3C239,369.3,265.2,369.3,293.5,369.3z M307.1,261.7c0,27.9,0,54.3,0,82
			c13.8,0,26.8,0.4,39.8-0.4c2.5-0.2,6.7-4.9,6.8-7.6c0.6-22,0.6-44,0-65.9c-0.1-2.8-4.3-7.6-6.9-7.7
			C333.8,261.3,320.8,261.7,307.1,261.7z M103.4,202c5.1,17.6,15.8,25.7,31.7,25.2c15-0.5,25.9-9.8,28.9-25.2
			C144.1,202,124.2,202,103.4,202z M242.1,202.2c-20.6,0-40.3,0-60.1,0c2.3,15,12.4,24.1,27.3,25C225.4,228.1,237,219.7,242.1,202.2
			z M319.2,201.6c-18.9,0-36.6,0-54.4,0c-2,0-4,0.4-6.1,0.6c3.2,15.9,13.6,24.7,29,25C303.6,227.6,314.7,219,319.2,201.6z
			 M329.4,368.2c6.4,0,12.8,0.4,19-0.3c1.9-0.2,4.8-3.5,4.9-5.5c0.1-1.8-3.1-5.2-4.9-5.3c-12.3-0.5-24.6-0.5-36.8,0
			c-1.8,0.1-4.8,3.5-4.8,5.3c0.1,2,2.9,5.2,4.8,5.5C317.5,368.6,323.5,368.2,329.4,368.2z"/>
		<path d="M206.8,356.7c-19.5,0-39-0.3-58.6,0.1c-10.1,0.2-14.9-2.9-14.7-13.7c0.4-27.1,0.4-54.3,0-81.5
			c-0.1-10.1,4.1-13.3,13.7-13.2c40.3,0.3,80.6,0.3,120.9,0c9.9-0.1,13.4,3.8,13.2,13.6c-0.5,27.1-0.5,54.3,0,81.5
			c0.2,10.1-3.8,13.5-13.5,13.3C247.6,356.4,227.2,356.7,206.8,356.7z M267.5,261.7c-38.9,0-76.6-0.1-114.3,0.3
			c-2.4,0-6.7,4.3-6.7,6.7c-0.5,24.5-0.3,49-0.3,74.3c41.2,0,80.8,0,121.3,0C267.5,316.2,267.5,290.1,267.5,261.7z"/>
	</g>
</g>
</svg>
